<?xml version="1.0" encoding="UTF-8"?>
<svg xmlns="http://www.w3.org/2000/svg" width="101" height="101" viewBox="0 0 101 101" fill="none">
  <path d="M29.6466 62.8981C29.6466 62.9832 29.6253 63.0612 29.5828 63.1322C29.5402 63.2031 29.4693 63.2599 29.3699 63.3024C29.2706 63.345 29.1358 63.3805 28.9655 63.4089C28.8095 63.4372 28.6037 63.4514 28.3483 63.4514C28.1071 63.4514 27.9013 63.4372 27.7311 63.4089C27.5608 63.3805 27.426 63.345 27.3267 63.3024C27.2274 63.2599 27.1564 63.2031 27.1138 63.1322C27.0713 63.0612 27.05 62.9832 27.05 62.8981V36.2081C27.05 36.123 27.0713 36.0449 27.1138 35.974C27.1706 35.903 27.2486 35.8463 27.348 35.8037C27.4615 35.7611 27.5963 35.7257 27.7524 35.6973C27.9226 35.6689 28.1213 35.6547 28.3483 35.6547C28.6037 35.6547 28.8095 35.6689 28.9655 35.6973C29.1358 35.7257 29.2706 35.7611 29.3699 35.8037C29.4693 35.8463 29.5402 35.903 29.5828 35.974C29.6253 36.0449 29.6466 36.123 29.6466 36.2081V62.8981ZM51.3808 55.619C51.3808 56.4278 51.2815 57.1798 51.0829 57.8751C50.8984 58.5703 50.6288 59.2018 50.2741 59.7693C49.9194 60.3369 49.4866 60.8406 48.9758 61.2805C48.465 61.7203 47.8832 62.0964 47.2305 62.4085C46.592 62.7065 45.8967 62.9335 45.1447 63.0896C44.3926 63.2457 43.52 63.3237 42.5268 63.3237H35.3967C35.1413 63.3237 34.8788 63.2315 34.6092 63.047C34.3396 62.8484 34.2048 62.4937 34.2048 61.9828V37.1233C34.2048 36.6125 34.3396 36.2649 34.6092 36.0804C34.8788 35.8817 35.1413 35.7824 35.3967 35.7824H41.3136C42.917 35.7824 44.2153 35.9456 45.2085 36.2719C46.2018 36.5983 47.0177 37.0665 47.6562 37.6767C48.3089 38.2726 48.7913 39.0034 49.1035 39.8689C49.4298 40.7203 49.593 41.671 49.593 42.721C49.593 43.3737 49.515 43.998 49.3589 44.5939C49.217 45.1899 48.9971 45.7433 48.6991 46.2541C48.4011 46.7649 48.0251 47.226 47.571 47.6375C47.1312 48.049 46.6062 48.3967 45.996 48.6804C46.7339 48.8223 47.4291 49.0919 48.0819 49.4892C48.7346 49.8723 49.3021 50.3619 49.7846 50.9578C50.2812 51.5538 50.6714 52.249 50.9552 53.0436C51.239 53.824 51.3808 54.6825 51.3808 55.619ZM46.8261 42.8912C46.8261 42.1676 46.7268 41.5149 46.5281 40.9331C46.3295 40.3372 46.0102 39.8334 45.5704 39.422C45.1447 38.9963 44.5842 38.6699 43.8889 38.4429C43.1937 38.2159 42.2643 38.1024 41.1007 38.1024H36.8014V47.9781H41.5264C42.5622 47.9781 43.3994 47.8433 44.0379 47.5737C44.6764 47.2899 45.2014 46.9139 45.6129 46.4456C46.0244 45.9774 46.3295 45.4382 46.5281 44.8281C46.7268 44.2037 46.8261 43.5581 46.8261 42.8912ZM48.6139 55.8318C48.6139 54.9237 48.465 54.122 48.167 53.4267C47.8832 52.7315 47.4575 52.1497 46.89 51.6815C46.3366 51.2132 45.6484 50.8585 44.8254 50.6173C44.0024 50.376 42.9808 50.2554 41.7605 50.2554H36.8014V61.0038H42.8035C43.6832 61.0038 44.4565 60.8974 45.1234 60.6845C45.8045 60.4575 46.4004 60.1312 46.9112 59.7055C47.4362 59.2656 47.8477 58.7264 48.1457 58.0879C48.4579 57.4352 48.6139 56.6832 48.6139 55.8318ZM56.6414 62.8981C56.6414 62.9832 56.6201 63.0612 56.5775 63.1322C56.5349 63.2031 56.464 63.2599 56.3647 63.3024C56.2654 63.345 56.1306 63.3805 55.9603 63.4089C55.8042 63.4372 55.5985 63.4514 55.3431 63.4514C55.1018 63.4514 54.8961 63.4372 54.7258 63.4089C54.5556 63.3805 54.4208 63.345 54.3214 63.3024C54.2221 63.2599 54.1512 63.2031 54.1086 63.1322C54.066 63.0612 54.0447 62.9832 54.0447 62.8981V36.2081C54.0447 36.123 54.066 36.0449 54.1086 35.974C54.1653 35.903 54.2434 35.8463 54.3427 35.8037C54.4562 35.7611 54.591 35.7257 54.7471 35.6973C54.9174 35.6689 55.116 35.6547 55.3431 35.6547C55.5985 35.6547 55.8042 35.6689 55.9603 35.6973C56.1306 35.7257 56.2654 35.7611 56.3647 35.8037C56.464 35.8463 56.5349 35.903 56.5775 35.974C56.6201 36.0449 56.6414 36.123 56.6414 36.2081V62.8981ZM75.1404 55.8744C75.1404 57.0947 74.9205 58.1872 74.4806 59.1521C74.0408 60.117 73.4236 60.9399 72.629 61.621C71.8344 62.2879 70.8908 62.7987 69.7982 63.1535C68.7056 63.5082 67.5137 63.6856 66.2225 63.6856C65.3428 63.6856 64.5127 63.6004 63.7323 63.4301C62.9519 63.2741 62.2566 63.0825 61.6465 62.8555C61.0363 62.6285 60.5184 62.4014 60.0928 62.1744C59.6813 61.9332 59.3975 61.7345 59.2414 61.5785C59.0853 61.4082 58.9718 61.2166 58.9009 61.0038C58.8299 60.7768 58.7944 60.5001 58.7944 60.1737C58.7944 59.9325 58.8086 59.7339 58.837 59.5778C58.8654 59.4217 58.9009 59.294 58.9434 59.1947C59.0002 59.0953 59.064 59.0315 59.135 59.0031C59.2201 58.9605 59.3053 58.9393 59.3904 58.9393C59.589 58.9393 59.8657 59.067 60.2205 59.3224C60.5894 59.5636 61.0576 59.8332 61.6252 60.1312C62.207 60.4149 62.8951 60.6845 63.6897 60.9399C64.4985 61.1812 65.435 61.3018 66.4992 61.3018C67.3647 61.3018 68.1593 61.1882 68.883 60.9612C69.6066 60.72 70.231 60.3795 70.756 59.9396C71.281 59.4997 71.6854 58.9605 71.9692 58.322C72.2671 57.6693 72.4161 56.9315 72.4161 56.1085C72.4161 55.2571 72.2317 54.5264 71.8627 53.9163C71.4938 53.3061 71.0043 52.774 70.3941 52.32C69.7982 51.8517 69.1171 51.4331 68.3509 51.0642C67.5847 50.6811 66.7972 50.3051 65.9884 49.9362C65.1938 49.5531 64.4134 49.1416 63.6472 48.7017C62.8809 48.2619 62.1928 47.751 61.5826 47.1693C60.9867 46.5733 60.5042 45.8781 60.1353 45.0835C59.7664 44.2889 59.5819 43.3453 59.5819 42.2527C59.5819 41.1885 59.7735 40.2378 60.1566 39.4007C60.5397 38.5493 61.0789 37.8328 61.7742 37.251C62.4695 36.6551 63.2995 36.201 64.2644 35.8888C65.2435 35.5767 66.3147 35.4206 67.4783 35.4206C68.06 35.4206 68.6489 35.4773 69.2448 35.5909C69.8408 35.7044 70.4012 35.8534 70.9262 36.0378C71.4654 36.2081 71.9408 36.4067 72.3523 36.6338C72.7779 36.8466 73.0546 37.024 73.1823 37.1659C73.3242 37.2936 73.4094 37.3929 73.4377 37.4638C73.4803 37.5206 73.5158 37.5986 73.5442 37.698C73.5725 37.7973 73.5938 37.9179 73.608 38.0598C73.6222 38.1875 73.6293 38.3507 73.6293 38.5493C73.6293 38.7338 73.6151 38.904 73.5867 39.0601C73.5725 39.202 73.5442 39.3297 73.5016 39.4432C73.459 39.5426 73.4023 39.6206 73.3313 39.6774C73.2746 39.7341 73.2036 39.7625 73.1185 39.7625C72.9624 39.7625 72.7212 39.6632 72.3948 39.4645C72.0827 39.2517 71.6854 39.0176 71.2029 38.7622C70.7205 38.5068 70.1458 38.2797 69.4789 38.0811C68.812 37.8682 68.0529 37.7618 67.2016 37.7618C66.3644 37.7618 65.6337 37.8753 65.0093 38.1024C64.385 38.3294 63.8671 38.6415 63.4556 39.0388C63.0441 39.422 62.732 39.876 62.5191 40.401C62.3205 40.926 62.2211 41.4794 62.2211 42.0612C62.2211 42.9125 62.4056 43.6433 62.7745 44.2534C63.1434 44.8635 63.633 45.4027 64.2431 45.871C64.8533 46.3392 65.5414 46.7649 66.3076 47.148C67.0881 47.5169 67.8756 47.8929 68.6702 48.276C69.4789 48.645 70.2664 49.0494 71.0327 49.4892C71.8131 49.9149 72.5083 50.4257 73.1185 51.0217C73.7286 51.6034 74.2181 52.2916 74.5871 53.0862C74.956 53.8666 75.1404 54.796 75.1404 55.8744Z" fill="url(#paint0_linear_1185_4468)"></path>
  <path d="M88.2098 57.6716C88.1901 57.6697 88.1726 57.6629 88.1572 57.6515C88.1418 57.64 88.1305 57.6206 88.1233 57.5934C88.1158 57.5695 88.1107 57.5376 88.1081 57.4976C88.1052 57.4609 88.1067 57.413 88.1126 57.354C88.1179 57.3016 88.1258 57.2561 88.1363 57.2174C88.1468 57.1788 88.1581 57.1484 88.1703 57.1265C88.1824 57.1046 88.1972 57.0895 88.2145 57.0813C88.2319 57.0731 88.2504 57.07 88.2701 57.072L94.006 57.6489L94.007 57.6391L88.4883 54.5569C88.4759 54.549 88.4637 54.5379 88.452 54.5235C88.4434 54.5094 88.4371 54.4905 88.4328 54.4669C88.4253 54.443 88.4215 54.4145 88.4216 54.3814C88.418 54.3512 88.4183 54.3149 88.4226 54.2723C88.4272 54.2264 88.4345 54.1874 88.4443 54.1553C88.4509 54.1229 88.4602 54.0957 88.4724 54.0737C88.4809 54.0547 88.4907 54.0392 88.5019 54.027C88.5163 54.0153 88.5302 54.0084 88.5437 54.0064L94.5533 52.2079L94.5538 52.203L88.8179 51.6261C88.7982 51.6241 88.7807 51.6174 88.7653 51.6059C88.7499 51.5944 88.7386 51.5751 88.7314 51.5479C88.7239 51.5239 88.7188 51.492 88.7162 51.452C88.7133 51.4153 88.715 51.3658 88.7212 51.3036C88.7268 51.2478 88.7349 51.2007 88.7454 51.162C88.7556 51.1266 88.7667 51.098 88.7789 51.076C88.791 51.0541 88.8057 51.039 88.8231 51.0308C88.8402 51.0259 88.8585 51.0244 88.8782 51.0264L94.8304 51.6251C94.9483 51.637 95.0255 51.6762 95.0618 51.7427C95.1014 51.8096 95.1183 51.8725 95.1123 51.9315L95.0797 52.2559C95.0715 52.3378 95.0544 52.4089 95.0285 52.4692C95.0058 52.5298 94.9742 52.5812 94.9335 52.6235C94.8958 52.6693 94.8507 52.7062 94.7983 52.734C94.7458 52.7618 94.6872 52.7857 94.6223 52.8057L89.3584 54.3962L89.356 54.4208L94.169 57.1142C94.2444 57.1549 94.3064 57.1959 94.3552 57.2372C94.407 57.2822 94.4473 57.3259 94.4761 57.3685C94.5046 57.4144 94.5231 57.461 94.5316 57.5082C94.5397 57.5586 94.541 57.6117 94.5354 57.6674L94.4993 58.0262C94.4963 58.0557 94.4883 58.0864 94.4752 58.1181C94.462 58.1499 94.4411 58.1776 94.4122 58.2012C94.3866 58.2251 94.3534 58.2432 94.3124 58.2557C94.2711 58.2714 94.2209 58.2763 94.162 58.2703L88.2098 57.6716Z" fill="white"></path>
  <path d="M86.9575 62.1722C86.9257 62.1634 86.9034 62.1453 86.8904 62.1179C86.8798 62.0945 86.8761 62.0644 86.8794 62.0277C86.8786 61.9934 86.8861 61.9476 86.9018 61.8904C86.9166 61.8365 86.9341 61.7917 86.9541 61.7562C86.9709 61.7199 86.9903 61.6928 87.0123 61.6749C87.0366 61.6611 87.0646 61.6586 87.0964 61.6673L87.5774 61.7996C87.4211 61.5483 87.3181 61.2894 87.2685 61.023C87.2179 60.7597 87.2271 60.5027 87.2961 60.2518C87.3582 60.0264 87.4426 59.831 87.5496 59.6658C87.6588 59.5045 87.7845 59.3769 87.9265 59.2827C88.0717 59.1894 88.2313 59.1309 88.4052 59.107C88.5791 59.0831 88.7629 59.0978 88.9566 59.1511C89.1948 59.2166 89.3876 59.3226 89.5352 59.4691C89.6859 59.6164 89.7952 59.7967 89.8629 60.01C89.9306 60.2234 89.9581 60.4649 89.9453 60.7346C89.9358 61.0053 89.8882 61.2962 89.8026 61.6073L89.614 62.2932L89.9855 62.3954C90.1697 62.4461 90.3368 62.4716 90.487 62.4719C90.6404 62.4731 90.7765 62.4439 90.8954 62.3844C91.0142 62.3249 91.1162 62.2334 91.2014 62.1099C91.2866 61.9865 91.3563 61.8263 91.4104 61.6295C91.4628 61.4389 91.4862 61.2609 91.4805 61.0954C91.4779 60.9308 91.4638 60.7834 91.4381 60.6534C91.4124 60.5234 91.3862 60.4137 91.3595 60.3244C91.3352 60.2391 91.3273 60.1806 91.3361 60.1489C91.3413 60.1298 91.3493 60.1132 91.36 60.0991C91.3707 60.085 91.3858 60.0737 91.4052 60.0654C91.4268 60.0611 91.4512 60.0593 91.4784 60.0599C91.5078 60.0646 91.5416 60.0722 91.5797 60.0827C91.6464 60.101 91.6975 60.1202 91.733 60.1402C91.7716 60.1611 91.8048 60.1958 91.8324 60.2444C91.8623 60.297 91.8903 60.3816 91.9163 60.498C91.9424 60.6145 91.9597 60.7439 91.9683 60.8863C91.9793 61.0328 91.9781 61.1862 91.9647 61.3465C91.9514 61.5067 91.9238 61.6631 91.8818 61.8155C91.8006 62.1108 91.6955 62.35 91.5666 62.5332C91.4408 62.7172 91.2942 62.8527 91.1268 62.9399C90.9585 63.0302 90.7685 63.0753 90.5568 63.0751C90.3482 63.0758 90.1201 63.0421 89.8724 62.974L86.9575 62.1722ZM89.1472 62.1648L89.3634 61.3789C89.4263 61.1503 89.4606 60.9446 89.4665 60.7617C89.4724 60.5789 89.4514 60.4194 89.4035 60.2833C89.3555 60.1471 89.2838 60.0352 89.1884 59.9475C89.0921 59.8629 88.9725 59.801 88.8297 59.7617C88.582 59.6936 88.3621 59.7168 88.1701 59.8313C87.9803 59.9499 87.8462 60.1521 87.7676 60.4379C87.7055 60.6633 87.7051 60.8886 87.7661 61.1138C87.8294 61.3429 87.9516 61.6003 88.1327 61.8858L89.1472 62.1648Z" fill="white"></path>
  <path d="M89.5421 67.3517C89.496 67.3338 89.4567 67.3168 89.4241 67.3006C89.3946 67.2856 89.3709 67.2693 89.353 67.2518C89.337 67.2385 89.3252 67.2233 89.3177 67.2063C89.312 67.1935 89.3128 67.1779 89.3199 67.1595C89.3307 67.1318 89.3493 67.102 89.3759 67.0699C89.4056 67.039 89.4376 67.002 89.472 66.9588C89.5064 66.9157 89.5411 66.8673 89.576 66.8137C89.614 66.7614 89.6467 66.6999 89.6741 66.6293C89.7063 66.5464 89.7194 66.4579 89.7136 66.3637C89.7108 66.2708 89.6867 66.1643 89.6415 66.0443C89.5981 65.9286 89.531 65.7965 89.4402 65.6482C89.3482 65.503 89.2312 65.3357 89.0892 65.1464L86.2708 64.0525C86.2523 64.0454 86.2372 64.0342 86.2255 64.0191C86.2137 64.0039 86.2074 63.9838 86.2065 63.9587C86.2044 63.9367 86.2075 63.9061 86.2156 63.8669C86.2226 63.8307 86.2368 63.785 86.2583 63.7298C86.2785 63.6776 86.2989 63.6342 86.3193 63.5998C86.3386 63.5684 86.357 63.5437 86.3745 63.5258C86.3921 63.5079 86.4103 63.4973 86.4292 63.4941C86.447 63.4939 86.465 63.4974 86.4835 63.5045L90.6512 65.1221C90.6696 65.1292 90.6853 65.1388 90.6983 65.1509C90.71 65.1661 90.7164 65.1862 90.7172 65.2113C90.7212 65.2375 90.7187 65.2666 90.7099 65.2985C90.7029 65.3347 90.6893 65.3788 90.669 65.431C90.6488 65.4832 90.629 65.525 90.6098 65.5564C90.5936 65.589 90.5758 65.6121 90.5564 65.6258C90.54 65.6406 90.523 65.6481 90.5052 65.6483C90.4863 65.6516 90.4676 65.6496 90.4492 65.6425L89.7907 65.3869C89.9192 65.5745 90.0175 65.7399 90.0857 65.8829C90.1538 66.0259 90.1992 66.1548 90.2217 66.2695C90.2474 66.3855 90.2543 66.4906 90.2424 66.5849C90.2293 66.6823 90.2049 66.777 90.1692 66.8691C90.1537 66.909 90.1328 66.9539 90.1064 67.0037C90.083 67.0547 90.0539 67.107 90.019 67.1605C89.9829 67.2172 89.9467 67.2649 89.9104 67.3038C89.876 67.347 89.8475 67.3748 89.825 67.3873C89.8056 67.4009 89.7885 67.4085 89.7739 67.4098C89.7623 67.4124 89.7467 67.4116 89.7271 67.4076C89.7093 67.4077 89.6851 67.4019 89.6544 67.39C89.6256 67.3823 89.5881 67.3695 89.5421 67.3517Z" fill="white"></path>
  <path d="M83.7578 69.5242C83.7372 69.5138 83.7218 69.5005 83.7116 69.4843C83.7013 69.4681 83.6955 69.4467 83.6941 69.4202C83.6957 69.3951 83.7024 69.3635 83.7143 69.3252C83.7262 69.287 83.7463 69.2399 83.7745 69.1841C83.8041 69.1253 83.8315 69.0782 83.8567 69.043C83.8789 69.0062 83.9018 68.9754 83.9255 68.9504C83.9477 68.9284 83.9713 68.9108 83.9964 68.8976C84.02 68.8874 84.0465 68.8787 84.076 68.8714L87.2863 68.1446L85.0192 67.0013C85.0015 66.9924 84.9876 66.9798 84.9773 66.9636C84.9671 66.9473 84.9627 66.9267 84.9643 66.9016C84.9644 66.8796 84.9704 66.8494 84.9823 66.8111C84.9927 66.7758 85.0113 66.7317 85.038 66.6788C85.0632 66.6288 85.0876 66.5876 85.1113 66.5553C85.1335 66.5259 85.1542 66.5032 85.1734 66.487C85.1926 66.4709 85.2118 66.4621 85.2309 66.4607C85.2486 66.4623 85.2662 66.4675 85.2839 66.4764L91.2295 69.475C91.2472 69.4839 91.2619 69.495 91.2736 69.5082C91.2839 69.5245 91.2882 69.5451 91.2866 69.5702C91.288 69.5967 91.282 69.6268 91.2687 69.6607C91.2567 69.6989 91.2382 69.743 91.213 69.793C91.1863 69.846 91.1618 69.8871 91.1396 69.9165C91.1189 69.9503 91.0982 69.973 91.0775 69.9848C91.0583 70.0009 91.0392 70.0097 91.02 70.0111C91.0009 70.0125 90.9825 70.0087 90.9648 69.9998L87.2951 68.1491L88.1457 70.686C88.1603 70.7229 88.169 70.7568 88.1719 70.7877C88.1762 70.8231 88.1753 70.8577 88.1693 70.8915C88.1662 70.9269 88.1565 70.9644 88.1402 71.0041C88.1268 71.0453 88.1075 71.0909 88.0823 71.1409C88.0571 71.1908 88.0341 71.2327 88.0134 71.2665C87.9911 71.3033 87.9697 71.3312 87.949 71.3503C87.9283 71.3693 87.9077 71.3811 87.887 71.3854C87.8693 71.3912 87.8502 71.389 87.8296 71.3786C87.8002 71.3637 87.7752 71.3401 87.7547 71.3076C87.7372 71.2766 87.7175 71.228 87.6956 71.1616L86.9924 68.8042L83.981 69.5095C83.9176 69.5255 83.8705 69.5349 83.8395 69.5378C83.8086 69.5406 83.7813 69.5361 83.7578 69.5242Z" fill="white"></path>
  <path d="M83.3588 74.628C83.2599 74.5625 83.2086 74.491 83.2047 74.4134C83.2035 74.3376 83.2193 74.275 83.2521 74.2255L84.9351 71.6844C84.7045 71.5317 84.4813 71.4154 84.2655 71.3357C84.0478 71.2587 83.8372 71.2278 83.6336 71.2431C83.4327 71.2601 83.2411 71.3287 83.0587 71.4489C82.8764 71.5691 82.7043 71.7514 82.5425 71.9958C82.4279 72.1688 82.3403 72.3339 82.2796 72.4912C82.2188 72.6485 82.1736 72.7884 82.1438 72.9108C82.115 73.0379 82.0947 73.143 82.0831 73.2261C82.0697 73.312 82.0538 73.3687 82.0357 73.3962C82.0247 73.4126 82.0106 73.425 81.9933 73.4333C81.976 73.4416 81.955 73.4435 81.9303 73.439C81.9084 73.4363 81.8828 73.4272 81.8535 73.4118C81.8224 73.3991 81.7863 73.3791 81.7451 73.3518C81.7258 73.3391 81.7075 73.325 81.6901 73.3095C81.6755 73.2959 81.6617 73.2808 81.6489 73.2644C81.637 73.2526 81.6269 73.238 81.6186 73.2207C81.6104 73.2034 81.6039 73.1833 81.5993 73.1605C81.5946 73.1376 81.5981 73.0787 81.6097 72.9837C81.624 72.8905 81.6515 72.7744 81.6922 72.6354C81.7357 72.4983 81.7946 72.3438 81.8689 72.1718C81.9415 72.0026 82.036 71.8302 82.1524 71.6544C82.3433 71.3661 82.555 71.139 82.7874 70.973C83.0226 70.8088 83.2739 70.7066 83.5414 70.6665C83.8117 70.6283 84.0981 70.6521 84.4007 70.7379C84.7014 70.8265 85.0166 70.98 85.346 71.1982C85.6618 71.4073 85.9182 71.6344 86.1153 71.8795C86.3106 72.1274 86.4448 72.3841 86.5177 72.6497C86.5934 72.9171 86.6066 73.1865 86.5571 73.4579C86.5086 73.7339 86.398 74.0023 86.2253 74.2632C86.0398 74.5432 85.8349 74.7512 85.6106 74.887C85.3863 75.0229 85.1527 75.1012 84.9098 75.1221C84.6678 75.1475 84.4234 75.1199 84.1766 75.0393C83.9279 74.9615 83.6882 74.8462 83.4576 74.6935L83.3588 74.628ZM83.8384 74.2169C84.2283 74.487 84.5972 74.601 84.9451 74.5589C85.293 74.5167 85.587 74.3144 85.827 73.952C85.9507 73.7653 86.0241 73.5769 86.0473 73.3869C86.0714 73.2014 86.0585 73.021 86.0086 72.8458C85.957 72.6733 85.8715 72.5101 85.7523 72.3561C85.6359 72.2039 85.498 72.0691 85.3387 71.9518L83.8384 74.2169Z" fill="white"></path>
  <path d="M79.4358 75.9646C79.3823 75.9207 79.3432 75.8801 79.3185 75.8427C79.2917 75.8079 79.2764 75.772 79.2728 75.7349C79.2696 75.7025 79.2748 75.6598 79.2883 75.607C79.3022 75.5589 79.324 75.5064 79.3535 75.4497C79.3805 75.3909 79.4133 75.3326 79.4521 75.275C79.4884 75.2153 79.5274 75.1599 79.5692 75.109C79.7091 74.9385 79.8511 74.8122 79.9952 74.7301C80.1392 74.6481 80.2883 74.6065 80.4427 74.6053C80.5995 74.6063 80.7639 74.6474 80.9357 74.7288C81.1054 74.8127 81.287 74.934 81.4805 75.0928L83.6303 76.8572L84.0534 76.3417C84.0827 76.306 84.1209 76.2905 84.1682 76.2953C84.218 76.302 84.2747 76.3316 84.3384 76.3838C84.3715 76.411 84.3974 76.4365 84.4161 76.4604C84.4374 76.4864 84.4515 76.5107 84.4584 76.5334C84.4679 76.5582 84.4712 76.5801 84.4684 76.5991C84.4635 76.6207 84.4537 76.6404 84.4391 76.6582L84.016 77.1737L84.8637 77.8694C84.879 77.8819 84.8909 77.896 84.8995 77.9115C84.9059 77.9296 84.9057 77.9507 84.8987 77.9748C84.8942 78.0009 84.8818 78.0291 84.8614 78.0592C84.8414 78.0939 84.8136 78.1329 84.7781 78.1762C84.7405 78.222 84.7077 78.2568 84.6796 78.2807C84.652 78.3091 84.6268 78.3268 84.6041 78.3337C84.5818 78.3453 84.5612 78.3496 84.5422 78.3468C84.5232 78.344 84.5061 78.3364 84.4908 78.3238L83.6431 77.6281L82.8596 78.5827C82.845 78.6006 82.8286 78.6127 82.8106 78.6192C82.7904 78.6282 82.7672 78.6304 82.741 78.626C82.7174 78.6237 82.6908 78.6146 82.6611 78.5988C82.634 78.5851 82.6039 78.5646 82.5709 78.5375C82.5072 78.4852 82.4682 78.4341 82.4539 78.384C82.4401 78.3386 82.4468 78.2993 82.4739 78.2662L83.2574 77.3116L81.1686 75.5973C80.9064 75.3821 80.6763 75.2551 80.4782 75.2161C80.2781 75.1796 80.0965 75.2607 79.9336 75.4592C79.8834 75.5203 79.8449 75.5803 79.8179 75.6391C79.7889 75.7005 79.7663 75.7565 79.7502 75.8072C79.7342 75.858 79.7221 75.9013 79.7139 75.9372C79.7036 75.9756 79.6902 76.005 79.6734 76.0254C79.663 76.0381 79.6511 76.0475 79.6376 76.0535C79.6242 76.0595 79.6077 76.0588 79.5883 76.0513C79.5693 76.0485 79.5473 76.039 79.5223 76.0227C79.4977 76.0111 79.4689 75.9917 79.4358 75.9646Z" fill="white"></path>
  <path d="M78.127 76.9694C78.1126 76.9559 78.1028 76.9399 78.0975 76.9214C78.0922 76.903 78.0939 76.8819 78.1024 76.8584C78.1087 76.8372 78.123 76.8099 78.1452 76.7766C78.1651 76.7456 78.1954 76.7085 78.2359 76.6653C78.2742 76.6244 78.3092 76.5918 78.341 76.5675C78.3706 76.5455 78.3969 76.5295 78.4199 76.5194C78.4428 76.5094 78.4637 76.5064 78.4825 76.5104C78.499 76.5169 78.5145 76.5268 78.5289 76.5403L81.7917 79.5965C81.8062 79.61 81.8171 79.6248 81.8247 79.6409C81.8299 79.6593 81.8283 79.6804 81.8197 79.7039C81.8136 79.7298 81.7993 79.757 81.777 79.7857C81.7548 79.8191 81.7245 79.8562 81.6862 79.897C81.6457 79.9403 81.6107 79.9729 81.5811 79.9948C81.5517 80.0214 81.5254 80.0374 81.5023 80.0428C81.4793 80.0529 81.4585 80.0559 81.4397 80.0519C81.4209 80.0478 81.4043 80.0391 81.3899 80.0255L78.127 76.9694ZM82.4287 81.1204C82.3134 81.0124 82.2544 80.9188 82.2518 80.8396C82.2492 80.7605 82.2986 80.6668 82.3999 80.5587C82.4989 80.4529 82.5868 80.3976 82.6636 80.3928C82.7404 80.3926 82.8366 80.4465 82.9519 80.5546C83.0673 80.6627 83.1263 80.7563 83.1289 80.8354C83.1315 80.9145 83.0821 81.0082 82.9808 81.1163C82.8817 81.2221 82.7938 81.2751 82.7169 81.2752C82.6402 81.2801 82.5441 81.2285 82.4287 81.1204Z" fill="white"></path>
  <path d="M74.4165 80.43C74.4034 80.4152 74.3951 80.3984 74.3916 80.3795C74.3881 80.3606 74.3917 80.3398 74.4025 80.3172C74.4107 80.2967 74.4275 80.2709 74.4528 80.2398C74.4755 80.2108 74.5079 80.1779 74.5499 80.1408C74.5943 80.1015 74.6335 80.0713 74.6675 80.0501C74.699 80.031 74.7266 80.0176 74.7505 80.0097C74.7718 80.004 74.7916 80.0041 74.8099 80.0099C74.8283 80.0157 74.8439 80.026 74.857 80.0408L76.6134 82.0288C76.7966 82.2361 76.9609 82.3898 77.1063 82.4898C77.254 82.5922 77.4002 82.6608 77.5451 82.6954C77.6921 82.7325 77.838 82.731 77.9828 82.691C78.1273 82.6556 78.2662 82.579 78.3995 82.4613C78.5698 82.3108 78.6867 82.0999 78.7501 81.8285C78.8136 81.5571 78.8355 81.2213 78.8159 80.8212L76.6932 78.4185C76.6802 78.4037 76.6719 78.3869 76.6684 78.368C76.6649 78.3491 76.6685 78.3283 76.6792 78.3057C76.6875 78.2852 76.7043 78.2594 76.7295 78.2283C76.7523 78.1994 76.7859 78.1653 76.8303 78.126C76.8723 78.089 76.9103 78.0598 76.9442 78.0386C76.9757 78.0195 77.0034 78.0061 77.0272 77.9982C77.051 77.9904 77.0721 77.9893 77.0904 77.9951C77.1062 78.0031 77.1207 78.0145 77.1338 78.0293L80.0938 81.3797C80.1069 81.3945 80.1164 81.4102 80.1224 81.4269C80.1259 81.4458 80.1222 81.4666 80.1115 81.4893C80.1029 81.5144 80.0874 81.5391 80.0649 81.5634C80.0421 81.5923 80.0098 81.6253 79.9678 81.6623C79.9258 81.6994 79.8891 81.7275 79.8576 81.7465C79.8283 81.768 79.8018 81.7804 79.7783 81.7836C79.757 81.7893 79.7384 81.7881 79.7225 81.7802C79.7042 81.7744 79.6885 81.7641 79.6754 81.7493L79.2568 81.2754C79.254 81.6602 79.2026 81.9825 79.1025 82.2423C79.0024 82.5021 78.8611 82.7126 78.6784 82.874C78.4588 83.068 78.241 83.1946 78.025 83.2535C77.8091 83.3125 77.5998 83.3194 77.3973 83.2742C77.1923 83.2312 76.9959 83.1432 76.8082 83.0103C76.6179 82.8795 76.4182 82.6957 76.2088 82.4587L74.4165 80.43Z" fill="white"></path>
  <path d="M72.7925 86.864C72.7404 86.7879 72.7164 86.7265 72.7205 86.6799C72.7245 86.6332 72.7455 86.5969 72.7836 86.5709L73.3668 86.1722C73.1727 86.1334 73.0065 86.0595 72.8682 85.9506C72.729 85.8463 72.6074 85.718 72.5033 85.5657C72.3602 85.3564 72.2669 85.1469 72.2234 84.9373C72.1771 84.7296 72.1761 84.5268 72.2204 84.329C72.2665 84.1339 72.3534 83.9488 72.4811 83.7738C72.6088 83.5987 72.7746 83.4415 72.9785 83.3021C73.1443 83.1888 73.3178 83.1041 73.4989 83.0481C73.68 82.9921 73.836 82.9692 73.9667 82.9796C73.9839 82.8881 73.986 82.7949 73.9731 82.7C73.9601 82.6052 73.922 82.5115 73.8588 82.4191C73.7882 82.3158 73.6798 82.2622 73.5336 82.2584C73.3847 82.2565 73.2295 82.3067 73.0681 82.4091L72.0411 83.0513C71.8688 83.1611 71.6953 83.2458 71.5206 83.3054C71.3432 83.3668 71.1709 83.3949 71.0037 83.3895C70.8383 83.3869 70.6831 83.3494 70.5379 83.2771C70.3927 83.2048 70.2662 83.0898 70.1585 82.9321C70.0469 82.769 69.9741 82.5894 69.9398 82.3935C69.9028 82.1993 69.9169 81.9982 69.9821 81.7901C70.0427 81.5811 70.1594 81.3697 70.3323 81.1557C70.5034 80.9391 70.7398 80.7276 71.0416 80.5213C71.3297 80.3243 71.5934 80.1819 71.8327 80.0942C72.0673 80.0056 72.2805 79.9615 72.4724 79.9621C72.6596 79.9617 72.824 80.0009 72.9656 80.0796C73.1045 80.1602 73.2213 80.2698 73.3161 80.4085C73.3812 80.5037 73.4316 80.6008 73.4675 80.7C73.5033 80.7991 73.5255 80.9016 73.5341 81.0075C73.5399 81.1152 73.5344 81.2267 73.5174 81.342C73.4978 81.4591 73.4695 81.5842 73.4327 81.717C73.6197 81.6929 73.7802 81.7089 73.9142 81.7649C74.0482 81.8208 74.1543 81.9059 74.2323 82.0201C74.3476 82.1887 74.4162 82.3592 74.4383 82.5315C74.4623 82.7066 74.4634 82.8774 74.4416 83.0439C74.591 83.0934 74.7293 83.1644 74.8565 83.257C74.9836 83.3496 75.1057 83.4815 75.2228 83.6528C75.364 83.8594 75.4564 84.0675 75.5 84.2771C75.5454 84.4894 75.5473 84.6936 75.5057 84.8895C75.4615 85.0873 75.3755 85.2738 75.2478 85.4488C75.122 85.6266 74.9585 85.7842 74.7573 85.9218C74.6513 85.9942 74.5474 86.0553 74.4457 86.1049C74.3431 86.1591 74.2459 86.2036 74.154 86.2384L73.0652 86.9828C73.0189 87.0144 72.9742 87.019 72.9311 86.9967C72.8851 86.9762 72.839 86.932 72.7925 86.864ZM72.9994 85.2147C73.1908 85.4947 73.4179 85.6606 73.6807 85.7123C73.9407 85.7659 74.2121 85.6961 74.4948 85.5028C74.6389 85.4043 74.7486 85.2934 74.8239 85.1701C74.8992 85.0468 74.9434 84.9189 74.9565 84.7863C74.9695 84.6537 74.9557 84.5196 74.9148 84.384C74.8739 84.2483 74.8108 84.118 74.7253 83.9929C74.5394 83.721 74.3165 83.5583 74.0564 83.5047C73.7955 83.4557 73.5264 83.5259 73.2491 83.7155C73.1023 83.8159 72.9912 83.9277 72.9159 84.051C72.8379 84.1761 72.7915 84.3036 72.7765 84.4335C72.7635 84.5661 72.7764 84.6989 72.8154 84.8318C72.8563 84.9674 72.9176 85.095 72.9994 85.2147ZM70.6242 82.5718C70.7469 82.7513 70.9142 82.8384 71.126 82.8332C71.3352 82.8298 71.5649 82.7486 71.8151 82.5895L72.9127 81.893C72.9586 81.75 72.9895 81.6231 73.0056 81.5124C73.0217 81.4017 73.0273 81.302 73.0227 81.2135C73.0134 81.1241 72.9951 81.0448 72.9678 80.9757C72.9387 80.9039 72.9027 80.8367 72.86 80.7742C72.7224 80.573 72.5178 80.4895 72.246 80.5237C71.9714 80.5598 71.6534 80.7014 71.2918 80.9486C71.0634 81.1047 70.8889 81.2579 70.7683 81.4082C70.643 81.5577 70.5579 81.7016 70.5129 81.8401C70.468 81.9785 70.4576 82.1093 70.4819 82.2323C70.5062 82.3553 70.5536 82.4685 70.6242 82.5718Z" fill="white"></path>
  <path d="M63.2351 86.8335C63.1974 86.796 63.1735 86.7615 63.1635 86.73C63.1517 86.7027 63.1532 86.677 63.1678 86.6528C63.1794 86.6298 63.2057 86.6077 63.2468 86.5864C63.2835 86.5634 63.3335 86.5381 63.397 86.5107C63.4605 86.4833 63.5132 86.4641 63.5552 86.4532C63.5927 86.4406 63.6241 86.4342 63.6492 86.4341C63.6742 86.4341 63.6961 86.439 63.7147 86.4489C63.7303 86.4601 63.7472 86.4743 63.7654 86.4916L65.0034 87.8134L67.5794 86.7011L67.4474 84.9125C67.4443 84.8887 67.4455 84.8666 67.4511 84.8463C67.4566 84.826 67.4674 84.8052 67.4833 84.784C67.5006 84.7657 67.5276 84.7451 67.5643 84.7221C67.5979 84.7004 67.6435 84.6771 67.7009 84.6523C67.7644 84.6249 67.8186 84.6051 67.8636 84.5929C67.9085 84.5806 67.9448 84.5775 67.9725 84.5835C67.9972 84.5908 68.0169 84.6074 68.0317 84.6333C68.0434 84.6605 68.05 84.7007 68.0515 84.7539L68.4077 91.2238C68.409 91.2519 68.4039 91.2774 68.3923 91.3004C68.382 91.3263 68.3652 91.3497 68.3419 91.3705C68.3156 91.3927 68.2834 91.4137 68.2454 91.4337C68.2057 91.458 68.1601 91.4813 68.1087 91.5035C68.0543 91.527 68.0062 91.5442 67.9642 91.5551C67.9206 91.5704 67.8832 91.5794 67.8521 91.582C67.8179 91.586 67.7894 91.5822 67.7664 91.5706C67.7418 91.5633 67.7197 91.5495 67.7002 91.5293L63.2351 86.8335ZM67.8677 90.8704L67.8722 90.8685L67.6158 87.2342L65.3709 88.2035L67.8677 90.8704Z" fill="white"></path>
  <path d="M60.2046 92.0725C60.1791 91.9839 60.1756 91.9181 60.1941 91.8751C60.2126 91.8321 60.244 91.8042 60.2883 91.7915L60.9672 91.5964C60.7952 91.4985 60.6607 91.3761 60.5636 91.2292C60.4643 91.0864 60.3892 90.9264 60.3383 90.7491C60.2683 90.5054 60.2455 90.2772 60.2701 90.0646C60.2915 89.8528 60.3543 89.66 60.4586 89.4862C60.5637 89.3155 60.7044 89.1671 60.8806 89.0411C61.0569 88.9151 61.2637 88.818 61.5011 88.7497C61.6941 88.6943 61.8854 88.6684 62.075 88.6722C62.2645 88.676 62.4197 88.7034 62.5406 88.7543C62.5857 88.6728 62.617 88.585 62.6345 88.4909C62.652 88.3968 62.6453 88.2959 62.6144 88.1883C62.5798 88.068 62.4938 87.9831 62.3562 87.9335C62.2154 87.8849 62.0523 87.8838 61.8669 87.9302L60.6901 88.2169C60.492 88.267 60.3007 88.2928 60.1161 88.2945C59.9284 88.297 59.756 88.2695 59.599 88.2118C59.4428 88.1573 59.3072 88.0729 59.1921 87.9586C59.0771 87.8443 58.9931 87.6954 58.9404 87.5118C58.8858 87.3219 58.8731 87.1286 58.9022 86.9317C58.9281 86.7358 59.0048 86.5493 59.1321 86.3723C59.2553 86.1929 59.4326 86.0289 59.664 85.8802C59.8945 85.7283 60.1854 85.6019 60.5367 85.5009C60.8722 85.4045 61.1673 85.3523 61.422 85.3442C61.6726 85.3339 61.8889 85.3591 62.0708 85.4199C62.2487 85.4785 62.3924 85.5674 62.5021 85.6866C62.6086 85.8068 62.685 85.9476 62.7314 86.109C62.7632 86.2198 62.7806 86.3279 62.7834 86.4333C62.7863 86.5387 62.7752 86.643 62.75 86.7462C62.7216 86.8502 62.6813 86.9543 62.629 87.0585C62.5735 87.1635 62.5074 87.2733 62.4307 87.3879C62.6157 87.4238 62.7631 87.4894 62.8727 87.5847C62.9823 87.6799 63.0562 87.7941 63.0944 87.927C63.1508 88.1232 63.1624 88.3067 63.1292 88.4772C63.0969 88.651 63.0442 88.8135 62.9711 88.9647C63.0975 89.0586 63.2064 89.1695 63.298 89.2974C63.3896 89.4252 63.464 89.5889 63.5213 89.7883C63.5904 90.0288 63.6127 90.2554 63.5881 90.4681C63.5645 90.6839 63.5021 90.8783 63.4011 91.0513C63.2968 91.2251 63.1566 91.3751 62.9803 91.5011C62.805 91.6303 62.6002 91.7285 62.366 91.7958C62.2426 91.8313 62.1248 91.8566 62.0126 91.8717C61.8982 91.8908 61.7919 91.9025 61.6937 91.9067L60.4261 92.271C60.3723 92.2865 60.3284 92.2768 60.2944 92.242C60.2573 92.2081 60.2273 92.1516 60.2046 92.0725ZM60.9196 90.5718C61.0132 90.8979 61.1767 91.1267 61.4098 91.2585C61.6398 91.3911 61.9194 91.4102 62.2486 91.3156C62.4163 91.2674 62.5553 91.1966 62.6656 91.1032C62.7758 91.0099 62.858 90.9023 62.9121 90.7806C62.9662 90.6588 62.9952 90.5271 62.999 90.3855C63.0029 90.2439 62.9839 90.1003 62.9421 89.9547C62.8511 89.6382 62.6906 89.4136 62.4606 89.281C62.2284 89.1524 61.9508 89.1345 61.628 89.2273C61.4571 89.2764 61.3165 89.3476 61.2062 89.4409C61.0928 89.5352 61.0086 89.6416 60.9536 89.7602C60.8995 89.882 60.8701 90.0121 60.8653 90.1505C60.8615 90.2921 60.8795 90.4326 60.9196 90.5718ZM59.4958 87.3163C59.5559 87.5252 59.6872 87.6605 59.89 87.7221C60.0896 87.7847 60.3332 87.7798 60.6208 87.7075L61.8817 87.3914C61.9702 87.27 62.0395 87.1593 62.0895 87.0593C62.1396 86.9592 62.1763 86.8664 62.1997 86.7809C62.219 86.6931 62.2266 86.6121 62.2224 86.538C62.2173 86.4606 62.2043 86.3855 62.1834 86.3127C62.1161 86.0785 61.9481 85.9349 61.6793 85.8819C61.4073 85.8299 61.0609 85.8643 60.6399 85.9853C60.374 86.0617 60.1602 86.1522 59.9984 86.257C59.8325 86.3595 59.7065 86.4693 59.6203 86.5866C59.534 86.7039 59.4831 86.8248 59.4675 86.9492C59.4518 87.0736 59.4613 87.196 59.4958 87.3163Z" fill="white"></path>
  <path d="M54.8906 91.1008C54.872 90.9837 54.8899 90.8974 54.9445 90.8421C54.9995 90.79 55.0563 90.7592 55.1149 90.7499L58.1249 90.2708C58.0814 89.9976 58.016 89.7546 57.9288 89.5417C57.8383 89.3293 57.7186 89.1533 57.5696 89.0136C57.4212 88.8772 57.241 88.7825 57.0292 88.7295C56.8173 88.6765 56.5667 88.6731 56.2772 88.7191C56.0723 88.7517 55.8914 88.7989 55.7345 88.8605C55.5776 88.9222 55.4439 88.9835 55.3336 89.0444C55.2205 89.1091 55.1294 89.1653 55.0603 89.213C54.9879 89.2612 54.9355 89.2879 54.903 89.293C54.8835 89.2961 54.8648 89.2941 54.847 89.2869C54.8292 89.2798 54.8136 89.2656 54.8002 89.2444C54.7873 89.2264 54.7767 89.2014 54.7682 89.1694C54.7566 89.1379 54.7468 89.0978 54.7391 89.049C54.7354 89.0262 54.7334 89.0032 54.7331 88.9799C54.7332 88.9599 54.735 88.9396 54.7384 88.9191C54.7391 88.9023 54.743 88.885 54.7501 88.8672C54.7573 88.8494 54.7677 88.831 54.7814 88.8122C54.7951 88.7933 54.8408 88.756 54.9187 88.7003C54.997 88.6478 55.1011 88.5895 55.231 88.5255C55.3614 88.4647 55.515 88.4036 55.692 88.3421C55.8657 88.2811 56.0566 88.234 56.2648 88.2009C56.6063 88.1465 56.9168 88.1488 57.1962 88.2077C57.4762 88.2698 57.7215 88.3859 57.9319 88.5558C58.1429 88.729 58.3191 88.956 58.4605 89.237C58.5987 89.5184 58.6989 89.8543 58.761 90.2446C58.8205 90.6186 58.8267 90.9611 58.7795 91.2721C58.729 91.5836 58.6307 91.856 58.4844 92.0894C58.3386 92.326 58.1491 92.5179 57.9158 92.6651C57.6797 92.816 57.4072 92.9161 57.0982 92.9653C56.7664 93.0181 56.4747 93.0078 56.2229 92.9345C55.9712 92.8612 55.7555 92.7422 55.5758 92.5773C55.3935 92.4163 55.2484 92.2176 55.1408 91.9813C55.0299 91.7455 54.9527 91.491 54.9092 91.2178L54.8906 91.1008ZM55.5178 91.176C55.5826 91.6459 55.7482 91.9947 56.0145 92.2224C56.2809 92.4501 56.6287 92.5298 57.058 92.4615C57.2792 92.4263 57.4676 92.3529 57.6232 92.2414C57.7762 92.1337 57.9003 92.0023 57.9956 91.847C58.0877 91.6923 58.1502 91.519 58.183 91.327C58.2163 91.1383 58.2223 90.9456 58.201 90.7489L55.5178 91.176Z" fill="white"></path>
  <path d="M49.8223 88.8745C49.8216 88.8547 49.8259 88.8364 49.8352 88.8196C49.8445 88.8028 49.8605 88.7891 49.8832 88.7784C49.9026 88.7679 49.932 88.7586 49.9712 88.7507C50.0072 88.7428 50.0532 88.7379 50.1091 88.736C50.1684 88.7339 50.2178 88.7355 50.2576 88.7407C50.294 88.746 50.3239 88.7532 50.3473 88.7623C50.3674 88.7715 50.3826 88.7841 50.3931 88.8003C50.4035 88.8164 50.4091 88.8343 50.4098 88.854L50.5019 91.5052C50.5115 91.7816 50.5407 92.0047 50.5894 92.1744C50.6383 92.3473 50.7076 92.4932 50.7974 92.612C50.8873 92.7341 51.0009 92.8257 51.1381 92.8868C51.2722 92.9514 51.4281 92.9806 51.6058 92.9744C51.8329 92.9665 52.0572 92.878 52.2787 92.7088C52.5002 92.5396 52.7306 92.2944 52.9698 91.973L52.8585 88.769C52.8578 88.7492 52.8621 88.7309 52.8714 88.7141C52.8807 88.6973 52.8967 88.6836 52.9194 88.6729C52.9388 88.6624 52.9682 88.6531 53.0074 88.6452C53.0434 88.6373 53.091 88.6324 53.1503 88.6303C53.2062 88.6284 53.2541 88.63 53.2938 88.6352C53.3302 88.6405 53.3601 88.6477 53.3835 88.6568C53.4069 88.6659 53.4238 88.6785 53.4342 88.6946C53.4414 88.7108 53.4453 88.7288 53.446 88.7485L53.6013 93.2165C53.6019 93.2362 53.5993 93.2544 53.5933 93.2711C53.584 93.2879 53.568 93.3016 53.5453 93.3123C53.5227 93.3263 53.495 93.3355 53.4622 93.3399C53.4262 93.3478 53.3803 93.3527 53.3243 93.3546C53.2684 93.3565 53.2222 93.3549 53.1857 93.3495C53.1494 93.3475 53.1212 93.3402 53.1009 93.3278C53.0809 93.3186 53.0672 93.3059 53.0601 93.2896C53.0496 93.2735 53.0441 93.2556 53.0434 93.2358L53.0214 92.6039C52.7747 92.8992 52.5301 93.1153 52.2877 93.2522C52.0453 93.3892 51.8023 93.4619 51.5588 93.4703C51.2659 93.4805 51.0173 93.4397 50.8131 93.3479C50.6089 93.2562 50.443 93.1285 50.3154 92.9649C50.1845 92.8014 50.0888 92.6086 50.0284 92.3866C49.9646 92.1648 49.9273 91.8959 49.9163 91.5799L49.8223 88.8745Z" fill="white"></path>
  <path d="M45.1075 89.1793C45.111 89.14 45.1158 89.104 45.122 89.0715C45.1279 89.0423 45.1352 89.0165 45.1438 88.9941C45.1524 88.9717 45.1641 88.9513 45.179 88.9328C45.1903 88.9172 45.2192 88.8901 45.2656 88.8512C45.312 88.8123 45.389 88.7646 45.4965 88.7081C45.6008 88.6512 45.7174 88.6037 45.8465 88.5656C45.9755 88.5275 46.1135 88.5001 46.2604 88.4834C46.4077 88.4634 46.5584 88.4603 46.7126 88.474C47.0209 88.5014 47.2903 88.5767 47.5207 88.6996C47.7476 88.8256 47.9325 88.9958 48.0754 89.2102C48.2181 89.4279 48.319 89.6865 48.3784 89.986C48.4341 90.2885 48.4449 90.6317 48.4108 91.0155C48.3723 91.4485 48.2885 91.8146 48.1594 92.114C48.027 92.413 47.8618 92.6529 47.6639 92.8336C47.466 93.0144 47.2432 93.1401 46.9956 93.2106C46.7444 93.2842 46.481 93.3087 46.2054 93.2842C46.0578 93.2711 45.9181 93.2437 45.7862 93.2023C45.6541 93.1641 45.5343 93.117 45.4268 93.0612C45.3161 93.0051 45.2191 92.9435 45.1357 92.8766C45.0524 92.8097 44.993 92.7532 44.9574 92.707C44.9183 92.6639 44.8932 92.6302 44.8821 92.6061C44.8674 92.5849 44.858 92.561 44.8538 92.5341C44.8463 92.507 44.8423 92.4769 44.842 92.4438C44.8413 92.414 44.8429 92.3778 44.8467 92.3351C44.8551 92.24 44.8759 92.1741 44.9089 92.1373C44.9383 92.1036 44.9695 92.0882 45.0023 92.0911C45.0482 92.0952 45.103 92.1298 45.1666 92.195C45.227 92.2598 45.3066 92.3314 45.4054 92.4096C45.504 92.4911 45.6261 92.5681 45.7717 92.6406C45.9141 92.7127 46.0886 92.758 46.2952 92.7764C46.7217 92.8143 47.0659 92.6796 47.328 92.3723C47.5868 92.0647 47.7438 91.6009 47.7989 90.9809C47.8266 90.6693 47.8198 90.3926 47.7785 90.1509C47.7369 89.9124 47.6657 89.7094 47.5649 89.5417C47.4605 89.377 47.3282 89.2479 47.1679 89.1543C47.0073 89.064 46.822 89.0095 46.6121 88.9908C46.4152 88.9733 46.2386 88.989 46.0822 89.0379C45.9257 89.0868 45.7884 89.144 45.6702 89.2095C45.5519 89.2751 45.4539 89.3358 45.3762 89.3917C45.2952 89.4473 45.2367 89.4735 45.2006 89.4703C45.1809 89.4686 45.1651 89.4605 45.1532 89.4462C45.1376 89.435 45.1261 89.4157 45.1186 89.3886C45.1108 89.3648 45.1069 89.3347 45.1068 89.2983C45.1032 89.2649 45.1034 89.2253 45.1075 89.1793Z" fill="white"></path>
  <path d="M42.5872 87.9364L43.524 86.4151C43.5472 86.3828 43.5869 86.3605 43.6431 86.3481C43.6999 86.3325 43.7849 86.336 43.8979 86.3585C43.9561 86.37 44.0039 86.3829 44.0414 86.397C44.0788 86.4112 44.1069 86.4302 44.1257 86.4541C44.1419 86.4741 44.1487 86.4989 44.1462 86.5286C44.1442 86.5551 44.1314 86.5861 44.1075 86.6217L43.1783 88.0538C43.2023 88.0686 43.2217 88.0893 43.2365 88.1157C43.2514 88.1422 43.2599 88.1674 43.2618 88.1913L44.0059 92.7863C44.0131 92.8347 44.0141 92.8718 44.009 92.8977C44.0032 92.9268 43.9906 92.9478 43.9713 92.9607C43.9487 92.973 43.9177 92.9769 43.8783 92.9725C43.835 92.9706 43.7795 92.9629 43.7116 92.9494C43.6406 92.9353 43.5847 92.9208 43.544 92.906C43.5026 92.8945 43.4716 92.8816 43.4509 92.8674C43.427 92.8526 43.4118 92.8361 43.4053 92.818C43.3956 92.7993 43.3882 92.7777 43.383 92.7532L42.7722 88.653L42.7528 88.6492L40.6454 92.2093C40.6203 92.2513 40.5935 92.2762 40.5651 92.284C40.5328 92.2944 40.4937 92.2967 40.4479 92.2909C40.4014 92.2884 40.3458 92.2807 40.2812 92.2679C40.2198 92.2557 40.1704 92.2425 40.1329 92.2284C40.0922 92.2136 40.0638 92.1962 40.0476 92.1762C40.0315 92.1562 40.0263 92.1316 40.032 92.1026C40.0372 92.0767 40.052 92.0444 40.0765 92.0056L42.5872 87.9364Z" fill="white"></path>
  <path d="M25.7965 80.0899C25.8077 80.0737 25.8221 80.0616 25.8396 80.0538C25.8572 80.0459 25.8795 80.0454 25.9068 80.0523C25.9314 80.0573 25.9618 80.0684 25.998 80.0855C26.0315 80.1008 26.0726 80.1253 26.1213 80.1591C26.1646 80.1892 26.2006 80.2182 26.2293 80.2461C26.258 80.2741 26.279 80.2987 26.2923 80.32C26.3056 80.3412 26.3116 80.3614 26.3103 80.3806C26.309 80.3998 26.3028 80.4175 26.2915 80.4337L23.0034 85.1689L23.0115 85.1745L28.3846 81.8451C28.3976 81.838 28.4132 81.8328 28.4315 81.8295C28.448 81.8289 28.4676 81.8325 28.4902 81.8402C28.5148 81.8453 28.5416 81.8558 28.5705 81.8719C28.5986 81.8834 28.6302 81.9013 28.6654 81.9258C28.7033 81.9521 28.7339 81.9773 28.7571 82.0015C28.7823 82.023 28.8016 82.0444 28.8149 82.0656C28.8273 82.0823 28.8362 82.0985 28.8413 82.1141C28.8446 82.1324 28.8439 82.1479 28.8391 82.1606L27.4951 88.2879L27.4991 88.2908L30.7873 83.5556C30.7986 83.5393 30.8129 83.5273 30.8304 83.5194C30.848 83.5115 30.8703 83.511 30.8976 83.5179C30.9222 83.523 30.9526 83.534 30.9888 83.5512C31.0223 83.5664 31.0648 83.5919 31.1162 83.6276C31.1622 83.6595 31.1995 83.6895 31.2282 83.7174C31.2542 83.7435 31.2738 83.7672 31.2871 83.7884C31.3004 83.8097 31.3065 83.8299 31.3052 83.8491C31.3012 83.8663 31.2936 83.8831 31.2823 83.8993L27.8702 88.813C27.8026 88.9104 27.7309 88.9588 27.655 88.9583C27.5773 88.9605 27.5142 88.9447 27.4655 88.9109L27.1977 88.7249C27.13 88.678 27.0762 88.6285 27.036 88.5766C26.994 88.5274 26.9644 88.4747 26.9472 88.4187C26.9254 88.3635 26.9151 88.3062 26.9162 88.2468C26.9173 88.1875 26.9249 88.1246 26.939 88.0581L28.1029 82.6839L28.0826 82.6698L23.3918 85.5709C23.3196 85.617 23.2537 85.6514 23.1939 85.674C23.1295 85.6975 23.0716 85.7114 23.0204 85.7159C22.9664 85.7186 22.9168 85.7122 22.8714 85.6967C22.8233 85.6793 22.7763 85.6547 22.7303 85.6227L22.4341 85.4171C22.4097 85.4002 22.3869 85.3783 22.3654 85.3514C22.344 85.3245 22.33 85.2927 22.3234 85.256C22.3149 85.222 22.3152 85.1841 22.3242 85.1423C22.3305 85.0985 22.3506 85.0523 22.3844 85.0036L25.7965 80.0899Z" fill="white"></path>
  <path d="M22.5556 76.8972C22.5785 76.8736 22.6051 76.8627 22.6354 76.8646C22.6611 76.8665 22.6892 76.8778 22.7198 76.8983C22.7503 76.9142 22.7868 76.9427 22.8293 76.984C22.8695 77.023 22.9003 77.0599 22.9218 77.0945C22.9455 77.1267 22.9599 77.1568 22.965 77.1847C22.9654 77.2126 22.9541 77.2384 22.9312 77.262L22.5835 77.6199C22.8791 77.604 23.1556 77.6384 23.413 77.7231C23.668 77.8056 23.8889 77.9375 24.0755 78.1188C24.2432 78.2817 24.3737 78.4498 24.4671 78.6231C24.5558 78.7965 24.6072 78.9681 24.6213 79.1379C24.6331 79.3101 24.6076 79.4781 24.5448 79.642C24.482 79.806 24.3806 79.96 24.2406 80.1041C24.0685 80.2813 23.8827 80.3993 23.6833 80.458C23.4816 80.5192 23.2709 80.5281 23.0514 80.4847C22.8318 80.4413 22.6069 80.3491 22.3766 80.208C22.144 80.0694 21.912 79.8876 21.6805 79.6627L21.1702 79.1671L20.9018 79.4435C20.7687 79.5805 20.6658 79.7147 20.5932 79.8462C20.5183 79.98 20.4783 80.1134 20.4733 80.2462C20.4682 80.379 20.4993 80.5125 20.5664 80.6466C20.6336 80.7807 20.7404 80.9189 20.8868 81.0611C21.0286 81.1988 21.1734 81.305 21.3212 81.3797C21.4667 81.4568 21.6026 81.5154 21.729 81.5554C21.8553 81.5955 21.964 81.6254 22.0551 81.645C22.1416 81.6647 22.1966 81.686 22.2203 81.709C22.2344 81.7228 22.2451 81.7377 22.2524 81.7539C22.2596 81.7701 22.2622 81.7887 22.2602 81.8097C22.2535 81.8308 22.2433 81.8531 22.2297 81.8765C22.2114 81.9001 22.1885 81.926 22.161 81.9544C22.1128 82.004 22.0714 82.0395 22.0367 82.061C21.9998 82.0848 21.9534 82.0971 21.8975 82.098C21.837 82.0988 21.7494 82.0826 21.6348 82.0494C21.5202 82.0161 21.3984 81.969 21.2695 81.908C21.1358 81.847 21.002 81.7721 20.8679 81.6832C20.7339 81.5944 20.6102 81.4948 20.4968 81.3847C20.2771 81.1713 20.1181 80.964 20.0196 80.7628C19.9189 80.564 19.8707 80.3702 19.8749 80.1815C19.8768 79.9905 19.9288 79.8023 20.0309 79.6168C20.1307 79.4337 20.2701 79.25 20.4491 79.0658L22.5556 76.8972ZM21.5075 78.8198L22.0922 79.3877C22.2623 79.5529 22.426 79.6822 22.5834 79.7754C22.7408 79.8686 22.8907 79.9269 23.0331 79.9505C23.1755 79.974 23.3082 79.9651 23.431 79.9237C23.5515 79.8801 23.6633 79.8051 23.7666 79.6988C23.9456 79.5145 24.0311 79.3106 24.0232 79.0872C24.0106 78.8638 23.898 78.6488 23.6854 78.4423C23.5177 78.2794 23.3205 78.1705 23.0938 78.1156C22.8624 78.0607 22.5781 78.0439 22.2407 78.0651L21.5075 78.8198Z" fill="white"></path>
  <path d="M16.7586 76.6518C16.7965 76.6201 16.8303 76.5938 16.8602 76.5731C16.8875 76.5544 16.9132 76.5415 16.9372 76.5342C16.9566 76.5266 16.9756 76.5236 16.9941 76.5252C17.008 76.5264 17.0214 76.5346 17.0341 76.5497C17.0531 76.5724 17.0703 76.6031 17.0856 76.6419C17.0984 76.6827 17.1154 76.7286 17.1367 76.7796C17.1579 76.8305 17.1836 76.8842 17.2138 76.9406C17.2414 76.9991 17.2795 77.0574 17.3282 77.1154C17.3854 77.1835 17.4566 77.2377 17.5419 77.2779C17.6247 77.3202 17.7296 77.3504 17.8566 77.3685C17.9789 77.3862 18.1269 77.391 18.3006 77.3828C18.4722 77.3721 18.6752 77.3501 18.9095 77.3168L21.2254 75.3735C21.2405 75.3608 21.2576 75.3529 21.2765 75.3499C21.2955 75.3469 21.3162 75.3511 21.3386 75.3624C21.3588 75.3712 21.3842 75.3886 21.4146 75.4146C21.443 75.4381 21.4762 75.4726 21.5143 75.518C21.5503 75.5609 21.5784 75.5996 21.5988 75.6341C21.617 75.6661 21.6298 75.6941 21.637 75.7181C21.6443 75.7421 21.6448 75.7632 21.6385 75.7813C21.6301 75.797 21.6184 75.8111 21.6032 75.8238L18.1786 78.6975C18.1635 78.7102 18.1475 78.7194 18.1306 78.7249C18.1117 78.7279 18.091 78.7238 18.0686 78.7125C18.0437 78.7033 18.0194 78.6871 17.9957 78.664C17.9674 78.6405 17.9352 78.6073 17.8992 78.5644C17.8632 78.5215 17.8361 78.4841 17.8179 78.4521C17.7971 78.4222 17.7854 78.3955 17.7828 78.3719C17.7777 78.3504 17.7793 78.3319 17.7877 78.3162C17.794 78.2981 17.8047 78.2826 17.8198 78.2699L18.3609 77.8159C18.1346 77.8381 17.9423 77.8447 17.7842 77.8355C17.626 77.8264 17.4912 77.8041 17.3798 77.7686C17.2658 77.7353 17.1704 77.6907 17.0934 77.6349C17.0144 77.5765 16.9431 77.5095 16.8796 77.4338C16.8521 77.401 16.8228 77.3611 16.7919 77.314C16.7584 77.269 16.7266 77.2183 16.6965 77.1619C16.6643 77.1029 16.6398 77.0482 16.6232 76.9977C16.6019 76.9467 16.5913 76.9084 16.5912 76.8826C16.5886 76.859 16.5902 76.8405 16.5961 76.827C16.5994 76.8156 16.6076 76.8023 16.6206 76.787C16.629 76.7714 16.6458 76.753 16.671 76.7318C16.6916 76.7103 16.7208 76.6836 16.7586 76.6518Z" fill="white"></path>
  <path d="M17.641 70.5486C17.6599 70.5355 17.679 70.5283 17.6982 70.5271C17.7173 70.5259 17.7389 70.5311 17.7628 70.5426C17.784 70.556 17.8086 70.5771 17.8364 70.6059C17.8642 70.6347 17.8959 70.6748 17.9314 70.7264C17.9688 70.7806 17.9969 70.8272 18.0158 70.8662C18.0374 70.9033 18.0534 70.9383 18.064 70.971C18.0726 71.001 18.0767 71.0302 18.0763 71.0585C18.0739 71.0841 18.0689 71.1116 18.0611 71.1409L17.1586 74.3063L19.2494 72.8657C19.2657 72.8545 19.2834 72.8483 19.3026 72.8471C19.3218 72.8459 19.342 72.852 19.3632 72.8653C19.3825 72.876 19.4061 72.8957 19.434 72.9245C19.4599 72.9506 19.4897 72.9881 19.5234 73.0369C19.5551 73.083 19.5795 73.1242 19.5965 73.1605C19.6116 73.194 19.6217 73.2231 19.6266 73.2477C19.6316 73.2723 19.6301 73.2933 19.6221 73.3108C19.6123 73.3256 19.5992 73.3386 19.583 73.3498L14.0995 77.1279C14.0832 77.1391 14.0665 77.1466 14.0492 77.1506C14.03 77.1518 14.0098 77.1457 13.9886 77.1323C13.9647 77.1208 13.9411 77.1011 13.9178 77.0731C13.89 77.0443 13.8602 77.0068 13.8284 76.9607C13.7948 76.9119 13.7704 76.8707 13.7552 76.8372C13.7355 76.8027 13.7255 76.7737 13.7251 76.7499C13.7202 76.7253 13.7217 76.7043 13.7297 76.6868C13.7376 76.6693 13.7497 76.655 13.766 76.6438L17.1504 74.3119L14.5165 73.8411C14.4771 73.8362 14.4432 73.8276 14.4147 73.8153C14.3816 73.8021 14.3516 73.7847 14.3248 73.7632C14.2953 73.7436 14.267 73.717 14.24 73.6837C14.2103 73.6521 14.1796 73.6133 14.1478 73.5672C14.116 73.5211 14.0903 73.4809 14.0706 73.4465C14.049 73.4093 14.0348 73.3771 14.028 73.3498C14.0212 73.3225 14.0208 73.2988 14.0269 73.2786C14.0303 73.2603 14.0415 73.2446 14.0604 73.2315C14.0876 73.2128 14.1203 73.2023 14.1586 73.1998C14.1942 73.1993 14.2464 73.2053 14.3151 73.218L16.7209 73.732L17.5468 70.7514C17.5632 70.6882 17.5775 70.6423 17.5899 70.6138C17.6022 70.5852 17.6193 70.5635 17.641 70.5486Z" fill="white"></path>
  <path d="M13.3637 67.7618C13.4685 67.7065 13.556 67.6957 13.6259 67.7296C13.693 67.7649 13.7404 67.8088 13.768 67.8612L15.1907 70.5568C15.4353 70.4277 15.6444 70.2875 15.8178 70.1364C15.9898 69.9824 16.1179 69.8123 16.2022 69.6264C16.2836 69.4419 16.3152 69.2408 16.2972 69.0232C16.2792 68.8056 16.2017 68.5672 16.0649 68.3079C15.9681 68.1245 15.8652 67.9684 15.7563 67.8396C15.6474 67.7109 15.5464 67.6041 15.4532 67.5193C15.3555 67.433 15.273 67.3649 15.2056 67.3148C15.1367 67.2618 15.0945 67.2207 15.0792 67.1916C15.0699 67.1741 15.0659 67.1558 15.0669 67.1366C15.068 67.1175 15.0764 67.0981 15.0921 67.0786C15.105 67.0607 15.1252 67.0425 15.1528 67.0243C15.1789 67.0031 15.2137 66.9809 15.2574 66.9579C15.2778 66.9471 15.299 66.9378 15.3209 66.93C15.3399 66.9237 15.3597 66.9188 15.3802 66.9154C15.3963 66.9106 15.414 66.9088 15.4332 66.9098C15.4523 66.9109 15.473 66.9148 15.4953 66.9217C15.5175 66.9286 15.5676 66.9599 15.6454 67.0156C15.7203 67.0729 15.809 67.1527 15.9114 67.2551C16.0109 67.359 16.1183 67.4848 16.2335 67.6325C16.3472 67.7773 16.4532 67.9429 16.5516 68.1293C16.713 68.4351 16.8108 68.7298 16.845 69.0134C16.8763 69.2985 16.8454 69.568 16.7523 69.822C16.6562 70.0775 16.498 70.3174 16.2775 70.5417C16.0555 70.7632 15.7698 70.9661 15.4203 71.1506C15.0853 71.3273 14.7631 71.4434 14.4534 71.4989C14.1423 71.5514 13.8527 71.5459 13.5847 71.4826C13.3137 71.4208 13.071 71.3031 12.8565 71.1296C12.6376 70.9547 12.4551 70.7289 12.3091 70.4522C12.1523 70.1551 12.0681 69.8756 12.0564 69.6136C12.0448 69.3516 12.0881 69.1091 12.1863 68.886C12.2801 68.6614 12.4215 68.4602 12.6106 68.2822C12.7981 68.1013 13.0142 67.9463 13.2588 67.8172L13.3637 67.7618ZM13.4944 68.3799C13.0704 68.5925 12.7934 68.8616 12.6636 69.187C12.5337 69.5125 12.5703 69.8675 12.7732 70.2519C12.8777 70.45 13.0078 70.6047 13.1634 70.7162C13.3147 70.8263 13.4791 70.9015 13.6568 70.9418C13.8329 70.9792 14.0171 70.9825 14.2094 70.9518C14.3988 70.9226 14.5832 70.8662 14.7625 70.7827L13.4944 68.3799Z" fill="white"></path>
  <path d="M14.0714 63.6614C14.1356 63.6356 14.1901 63.6209 14.2347 63.6172C14.2781 63.6104 14.3169 63.6144 14.3512 63.629C14.3812 63.6418 14.4161 63.6669 14.4558 63.7041C14.4913 63.7396 14.5269 63.7839 14.5624 63.837C14.601 63.889 14.6362 63.9458 14.668 64.0076C14.7029 64.0681 14.7327 64.1289 14.7572 64.19C14.8393 64.3948 14.8817 64.5801 14.8843 64.7458C14.8869 64.9115 14.8516 65.0623 14.7783 65.1981C14.702 65.3352 14.5868 65.4594 14.4328 65.5709C14.2776 65.6793 14.0838 65.7801 13.8516 65.8732L11.2703 66.9086L11.5185 67.5275C11.5357 67.5703 11.5309 67.6113 11.504 67.6505C11.4741 67.6909 11.4209 67.7264 11.3445 67.757C11.3047 67.773 11.2699 67.7834 11.2399 67.7883C11.2069 67.7945 11.1788 67.7951 11.1555 67.7902C11.1292 67.7866 11.1084 67.779 11.0931 67.7674C11.0766 67.7527 11.0641 67.7347 11.0555 67.7133L10.8072 67.0943L9.78937 67.5026C9.77103 67.5099 9.75299 67.5136 9.73526 67.5136C9.7163 67.5106 9.69794 67.5002 9.68019 67.4825C9.65938 67.466 9.64071 67.4416 9.62417 67.4092C9.60334 67.3749 9.58251 67.3318 9.56167 67.2799C9.5396 67.2249 9.52488 67.1793 9.51751 67.1432C9.50585 67.1053 9.50246 67.0748 9.50733 67.0515C9.50792 67.0264 9.51401 67.0063 9.52562 66.991C9.53722 66.9757 9.55219 66.9643 9.57053 66.957L10.5884 66.5487L10.1286 65.4025C10.12 65.3811 10.1173 65.3609 10.1203 65.342C10.1221 65.32 10.1313 65.2985 10.1478 65.2777C10.1612 65.2582 10.182 65.2392 10.2101 65.2208C10.2352 65.2037 10.2676 65.1871 10.3073 65.1712C10.3837 65.1405 10.4473 65.131 10.4981 65.1426C10.5445 65.1523 10.5758 65.177 10.5917 65.2168L11.0514 66.363L13.5594 65.3571C13.8742 65.2308 14.0963 65.0902 14.2258 64.9354C14.3541 64.7775 14.3704 64.5793 14.2748 64.3409C14.2454 64.2676 14.2114 64.2049 14.1728 64.153C14.133 64.098 14.0948 64.0512 14.058 64.0127C14.0213 63.9742 13.9892 63.9428 13.9616 63.9183C13.9328 63.8908 13.9136 63.8649 13.9037 63.8404C13.8976 63.8251 13.8952 63.8102 13.8964 63.7955C13.8976 63.7808 13.9061 63.7667 13.922 63.7533C13.9336 63.738 13.9526 63.7233 13.9788 63.7092C14.0008 63.6932 14.0317 63.6773 14.0714 63.6614Z" fill="white"></path>
  <path d="M13.8272 62.0462C13.846 62.0401 13.8648 62.0392 13.8835 62.0435C13.9022 62.0478 13.9198 62.0594 13.9363 62.0783C13.9518 62.094 13.9688 62.1197 13.9873 62.1552C14.0047 62.1876 14.0226 62.232 14.0409 62.2884C14.0582 62.3417 14.0698 62.3881 14.0757 62.4277C14.0806 62.4642 14.082 62.495 14.0797 62.5199C14.0774 62.5449 14.07 62.5646 14.0573 62.5791C14.0437 62.5905 14.0275 62.5992 14.0087 62.6053L9.75642 63.9853C9.73763 63.9914 9.71938 63.9939 9.70169 63.9927C9.68298 63.9884 9.66536 63.9768 9.64885 63.9579C9.6292 63.9401 9.61222 63.9144 9.59791 63.881C9.57944 63.8454 9.56157 63.801 9.54429 63.7478C9.52599 63.6914 9.51438 63.6449 9.50946 63.6085C9.5004 63.5698 9.49908 63.5391 9.50551 63.5163C9.50779 63.4913 9.51524 63.4715 9.52785 63.4571C9.54046 63.4426 9.55616 63.4323 9.57496 63.4262L13.8272 62.0462ZM8.11442 63.8067C8.26478 63.7579 8.37522 63.7515 8.44576 63.7875C8.51629 63.8234 8.57443 63.9119 8.62018 64.0529C8.66491 64.1907 8.67086 64.2944 8.63802 64.3639C8.60103 64.4313 8.50736 64.4894 8.357 64.5382C8.20665 64.587 8.0962 64.5934 8.02567 64.5574C7.95514 64.5215 7.89699 64.433 7.85125 64.292C7.80652 64.1542 7.80264 64.0516 7.83963 63.9842C7.87247 63.9147 7.96406 63.8555 8.11442 63.8067Z" fill="white"></path>
  <path d="M12.5858 57.1215C12.6051 57.1172 12.6239 57.1181 12.6421 57.1241C12.6603 57.1302 12.6768 57.1434 12.6914 57.1638C12.7053 57.1809 12.7198 57.208 12.7348 57.2452C12.7491 57.2791 12.7624 57.3234 12.7745 57.3781C12.7874 57.4359 12.7949 57.4849 12.7971 57.5249C12.7985 57.5617 12.7969 57.5924 12.7923 57.617C12.7869 57.6385 12.7773 57.6558 12.7634 57.669C12.7494 57.6822 12.7328 57.691 12.7136 57.6953L10.1242 58.2716C9.85416 58.3317 9.64022 58.4013 9.48236 58.4803C9.32129 58.56 9.19058 58.6549 9.09025 58.7649C8.9867 58.8757 8.91744 59.0041 8.88248 59.1502C8.8436 59.2938 8.84347 59.4524 8.88211 59.626C8.93148 59.8478 9.05961 60.0521 9.26649 60.2389C9.47338 60.4256 9.7567 60.6071 10.1165 60.7835L13.2459 60.0869C13.2652 60.0827 13.2839 60.0835 13.3021 60.0896C13.3204 60.0957 13.3368 60.1089 13.3515 60.1292C13.3654 60.1464 13.3799 60.1735 13.3949 60.2107C13.4092 60.2446 13.4228 60.2905 13.4357 60.3484C13.4478 60.403 13.455 60.4503 13.4571 60.4903C13.4586 60.5271 13.457 60.5578 13.4523 60.5825C13.4477 60.6071 13.4384 60.6261 13.4245 60.6393C13.4099 60.6493 13.3929 60.6565 13.3736 60.6608L9.00978 61.632C8.99049 61.6363 8.97209 61.6371 8.95459 61.6342C8.93637 61.6281 8.91993 61.6149 8.90528 61.5946C8.88742 61.5749 8.8733 61.5494 8.86293 61.518C8.84863 61.484 8.8354 61.4398 8.82323 61.3851C8.81107 61.3305 8.80427 61.2847 8.80283 61.2479C8.79817 61.2119 8.80012 61.1828 8.80869 61.1606C8.81404 61.1392 8.82404 61.1234 8.83868 61.1134C8.85261 61.1002 8.86921 61.0915 8.8885 61.0872L9.5057 60.9498C9.17022 60.7613 8.91297 60.5605 8.73394 60.3473C8.5549 60.1341 8.43891 59.9085 8.38597 59.6707C8.32229 59.3846 8.31684 59.1327 8.36964 58.9152C8.42243 58.6976 8.51756 58.5111 8.65503 58.3557C8.79179 58.1971 8.96374 58.0677 9.17088 57.9676C9.37731 57.8643 9.63483 57.7783 9.94343 57.7096L12.5858 57.1215Z" fill="white"></path>
  <path d="M7.74279 52.658C7.83457 52.6491 7.89992 52.6577 7.93883 52.6837C7.97774 52.7097 7.99941 52.7457 8.00385 52.7915L8.07184 53.4947C8.19948 53.3434 8.34435 53.2334 8.50646 53.1648C8.66497 53.0932 8.83601 53.0486 9.01958 53.0308C9.27198 53.0064 9.50048 53.0257 9.70509 53.0886C9.90937 53.1482 10.0875 53.2452 10.2394 53.3794C10.3881 53.5139 10.5083 53.6793 10.6001 53.8755C10.6918 54.0718 10.7496 54.2928 10.7734 54.5387C10.7927 54.7386 10.7832 54.9315 10.7449 55.1171C10.7067 55.3028 10.6514 55.4504 10.5793 55.56C10.6512 55.6192 10.7318 55.666 10.8212 55.7004C10.9105 55.7347 11.0109 55.7465 11.1224 55.7358C11.247 55.7237 11.3461 55.6546 11.42 55.5283C11.4935 55.3988 11.5243 55.2386 11.5125 55.0479L11.4452 53.8385C11.4321 53.6346 11.4415 53.4418 11.4736 53.26C11.5053 53.075 11.5639 52.9105 11.6492 52.7666C11.7313 52.623 11.839 52.5051 11.9723 52.4128C12.1057 52.3205 12.2674 52.2651 12.4575 52.2467C12.6542 52.2277 12.8467 52.2505 13.0349 52.315C13.2228 52.3762 13.3921 52.4856 13.543 52.643C13.6969 52.7969 13.8258 53.0011 13.9298 53.2558C14.0371 53.5101 14.1084 53.8192 14.1436 54.183C14.1772 54.5305 14.1747 54.8302 14.1362 55.082C14.1007 55.3303 14.0364 55.5383 13.9434 55.7061C13.8535 55.8704 13.7398 55.9955 13.6026 56.0816C13.465 56.1643 13.3126 56.2138 13.1454 56.23C13.0307 56.2411 12.9213 56.2384 12.8171 56.222C12.713 56.2056 12.6125 56.1756 12.5156 56.1321C12.4184 56.0852 12.3234 56.0266 12.2306 55.9561C12.1374 55.8824 12.0415 55.7974 11.9429 55.7011C11.8738 55.8765 11.7825 56.0094 11.6688 56.0998C11.5551 56.1902 11.4294 56.2421 11.2918 56.2554C11.0885 56.275 10.9061 56.253 10.7444 56.1892C10.5794 56.1257 10.4293 56.0443 10.294 55.9449C10.1786 56.052 10.0497 56.1389 9.90724 56.2056C9.7648 56.2723 9.59033 56.3157 9.38382 56.3356C9.13469 56.3597 8.90782 56.3403 8.70322 56.2774C8.49534 56.2148 8.31559 56.118 8.16397 55.9871C8.01203 55.8529 7.89017 55.6877 7.7984 55.4914C7.70336 55.2955 7.64411 55.0762 7.62065 54.8336C7.60829 54.7058 7.60491 54.5854 7.61053 54.4723C7.61255 54.3563 7.62043 54.2497 7.63418 54.1524L7.50724 52.8396C7.50185 52.7838 7.51935 52.7424 7.55975 52.7154C7.59982 52.685 7.66084 52.6659 7.74279 52.658ZM9.08789 53.6346C8.75026 53.6673 8.49542 53.7862 8.32336 53.9915C8.15099 54.1934 8.08129 54.4648 8.11425 54.8058C8.13105 54.9795 8.17529 55.1291 8.24697 55.2545C8.31866 55.3799 8.40943 55.4803 8.51929 55.5557C8.62915 55.6311 8.75333 55.6836 8.89185 55.7132C9.03037 55.7428 9.17502 55.7504 9.32581 55.7358C9.65361 55.7041 9.90369 55.5873 10.0761 55.3853C10.2448 55.1804 10.3131 54.9108 10.2807 54.5764C10.2636 54.3994 10.2192 54.2482 10.1475 54.1228C10.0755 53.9941 9.98624 53.8919 9.87966 53.8162C9.76981 53.7408 9.64726 53.6881 9.51202 53.6581C9.3735 53.6285 9.23212 53.6207 9.08789 53.6346ZM12.5485 52.8285C12.3322 52.8494 12.1752 52.954 12.0776 53.1421C11.9797 53.3269 11.94 53.5673 11.9587 53.8633L12.0395 55.1607C12.1427 55.2698 12.2389 55.3581 12.3282 55.4256C12.4174 55.4931 12.502 55.5461 12.5818 55.5847C12.6646 55.6197 12.7428 55.6419 12.8165 55.6513C12.8935 55.6604 12.9697 55.6613 13.0451 55.6541C13.2877 55.6306 13.4595 55.4916 13.5606 55.2369C13.6614 54.9791 13.6907 54.6321 13.6485 54.1962C13.6219 53.9208 13.5719 53.694 13.4984 53.5159C13.4279 53.3341 13.3428 53.1901 13.2432 53.0839C13.1436 52.9778 13.0341 52.9056 12.9146 52.8676C12.7951 52.8295 12.6731 52.8165 12.5485 52.8285Z" fill="white"></path>
  <path d="M12.383 44.1697C12.4341 44.1548 12.4759 44.1506 12.5083 44.157C12.5378 44.1599 12.5597 44.1736 12.5739 44.1981C12.5883 44.2194 12.595 44.2531 12.5938 44.2993C12.5963 44.3426 12.5942 44.3986 12.5875 44.4674C12.5809 44.5363 12.5722 44.5917 12.5615 44.6337C12.5544 44.6727 12.5449 44.7032 12.5328 44.7252C12.5208 44.7472 12.5059 44.7639 12.4882 44.7755C12.4709 44.7837 12.4503 44.7916 12.4264 44.7993L10.6711 45.2449L10.401 48.0378L12.031 48.786C12.0533 48.7948 12.072 48.8065 12.0871 48.8212C12.1022 48.8359 12.1152 48.8553 12.1261 48.8796C12.1337 48.9034 12.1388 48.937 12.1412 48.9803C12.144 49.0202 12.1423 49.0714 12.1363 49.1336C12.1296 49.2025 12.1208 49.2595 12.1098 49.3048C12.0988 49.35 12.084 49.3834 12.0654 49.4047C12.0471 49.4228 12.0231 49.4321 11.9933 49.4325C11.9638 49.4296 11.9254 49.416 11.8781 49.3916L6.04069 46.5789C6.01542 46.5665 5.99554 46.5497 5.98105 46.5284C5.96328 46.5069 5.95091 46.4809 5.94393 46.4504C5.93726 46.4167 5.93435 46.3784 5.9352 46.3354C5.93308 46.2889 5.93471 46.2378 5.9401 46.182C5.94581 46.123 5.954 46.0725 5.96468 46.0306C5.97239 45.985 5.98259 45.9479 5.99528 45.9194C6.00828 45.8876 6.02541 45.8644 6.04666 45.8499C6.06496 45.8318 6.08769 45.8191 6.11486 45.8118L12.383 44.1697ZM6.61087 46.2767L6.6104 46.2816L9.9166 47.8123L10.152 45.3784L6.61087 46.2767Z" fill="white"></path>
  <path d="M9.27015 38.9409C9.36 38.9616 9.41925 38.9905 9.44789 39.0275C9.47653 39.0645 9.48567 39.1055 9.47531 39.1504L9.31658 39.8388C9.48565 39.7358 9.65794 39.6775 9.83344 39.6639C10.0065 39.6464 10.1828 39.6583 10.3626 39.6998C10.6096 39.7567 10.8202 39.8475 10.9943 39.9722C11.169 40.0936 11.3072 40.242 11.4087 40.4175C11.5069 40.5923 11.5684 40.7873 11.5932 41.0025C11.6179 41.2177 11.6025 41.4457 11.547 41.6864C11.5018 41.8821 11.4317 42.062 11.3364 42.2259C11.2411 42.3898 11.1419 42.5123 11.0388 42.5932C11.0882 42.6722 11.1498 42.7422 11.2236 42.8031C11.2974 42.8641 11.3888 42.9072 11.498 42.9323C11.6199 42.9604 11.7359 42.9264 11.846 42.8301C11.9568 42.7306 12.0369 42.5885 12.0862 42.4039L12.4063 41.2356C12.4586 41.0381 12.5288 40.8583 12.6169 40.6961C12.7057 40.5307 12.8134 40.3933 12.94 40.284C13.0634 40.1739 13.203 40.0962 13.3588 40.051C13.5145 40.0058 13.6855 40.0047 13.8716 40.0476C14.0641 40.092 14.2394 40.1746 14.3974 40.2956C14.5561 40.4133 14.682 40.5707 14.7751 40.768C14.8722 40.9627 14.9296 41.1973 14.9474 41.4718C14.9685 41.747 14.9379 42.0627 14.8558 42.4189C14.7773 42.7591 14.6799 43.0425 14.5634 43.2691C14.4509 43.4933 14.3239 43.6701 14.1825 43.7998C14.045 43.9269 13.8976 44.0095 13.7401 44.0475C13.5833 44.0824 13.4231 44.0809 13.2595 44.0432C13.1472 44.0173 13.0442 43.98 12.9507 43.9314C12.8571 43.8828 12.7713 43.8225 12.6933 43.7504C12.616 43.6751 12.5445 43.5894 12.4789 43.4931C12.4139 43.3936 12.35 43.2826 12.287 43.1599C12.1658 43.3043 12.037 43.4013 11.9005 43.451C11.764 43.5006 11.6284 43.5099 11.4936 43.4788C11.2946 43.4329 11.1286 43.3541 10.9956 43.2423C10.8593 43.1298 10.7428 43.0049 10.646 42.8677C10.5026 42.9326 10.3527 42.9741 10.1965 42.9922C10.0402 43.0102 9.86104 42.9959 9.65887 42.9493C9.41498 42.8931 9.20601 42.8026 9.03197 42.678C8.85471 42.5526 8.71498 42.4038 8.61275 42.2315C8.51127 42.056 8.44817 41.8607 8.42345 41.6454C8.39552 41.4295 8.40894 41.2027 8.46369 40.9653C8.49255 40.8401 8.52758 40.7248 8.56879 40.6194C8.60752 40.5101 8.64885 40.4114 8.69278 40.3236L8.98914 39.0383C9.00172 38.9838 9.03145 38.9501 9.07835 38.9372C9.12599 38.9212 9.18992 38.9224 9.27015 38.9409ZM10.2357 40.2941C9.90512 40.2178 9.6257 40.2497 9.3974 40.3897C9.16983 40.5265 9.01757 40.7618 8.94061 41.0955C8.90139 41.2656 8.89587 41.4215 8.92403 41.5632C8.95219 41.7048 9.0064 41.8289 9.08664 41.9352C9.16688 42.0416 9.26798 42.1308 9.38993 42.2029C9.51188 42.275 9.64667 42.328 9.79428 42.362C10.1152 42.436 10.3894 42.4046 10.617 42.2679C10.8421 42.1271 10.9924 41.8931 11.0678 41.5658C11.1078 41.3925 11.1137 41.235 11.0855 41.0933C11.0581 40.9484 11.0059 40.8231 10.9289 40.7175C10.8486 40.6111 10.7491 40.5223 10.6304 40.451C10.5084 40.3789 10.3769 40.3266 10.2357 40.2941ZM13.7732 40.6282C13.5614 40.5793 13.3794 40.6286 13.2271 40.776C13.0755 40.9202 12.9617 41.1356 12.8854 41.4222L12.5502 42.6781C12.6134 42.8144 12.6766 42.9287 12.7398 43.021C12.803 43.1133 12.8664 43.1904 12.9298 43.2524C12.9972 43.3118 13.0644 43.3577 13.1313 43.3901C13.2014 43.4231 13.2733 43.4482 13.3471 43.4652C13.5846 43.5199 13.7917 43.4426 13.9684 43.2333C14.1458 43.0207 14.2838 42.701 14.3822 42.2742C14.4443 42.0047 14.4689 41.7738 14.4557 41.5815C14.4466 41.3867 14.4116 41.2232 14.3509 41.0909C14.2901 40.9586 14.2091 40.8554 14.1079 40.7814C14.0067 40.7074 13.8951 40.6563 13.7732 40.6282Z" fill="white"></path>
  <path d="M12.6818 34.7693C12.7932 34.8097 12.86 34.8671 12.882 34.9417C12.9009 35.0151 12.9003 35.0797 12.8801 35.1354L11.8416 38.0009C12.1016 38.0952 12.3459 38.1557 12.5744 38.1825C12.804 38.2061 13.016 38.1866 13.2104 38.124C13.4016 38.0602 13.5717 37.9484 13.7207 37.7887C13.8696 37.629 13.9941 37.4114 14.0939 37.1358C14.1646 36.9408 14.211 36.7597 14.233 36.5925C14.2551 36.4254 14.2662 36.2788 14.2663 36.1527C14.2645 36.0224 14.2595 35.9155 14.2512 35.832C14.2441 35.7453 14.2461 35.6865 14.2574 35.6556C14.2641 35.637 14.2749 35.6216 14.2898 35.6095C14.3047 35.5974 14.3247 35.5906 14.3497 35.5892C14.3717 35.5866 14.3987 35.5894 14.4308 35.5976C14.464 35.6026 14.5038 35.6135 14.5502 35.6303C14.5719 35.6382 14.593 35.6476 14.6136 35.6586C14.631 35.6684 14.6479 35.6798 14.6643 35.6927C14.6786 35.7014 14.6919 35.7132 14.704 35.7281C14.7161 35.743 14.7271 35.761 14.7369 35.7821C14.7468 35.8032 14.7573 35.8613 14.7684 35.9564C14.7763 36.0503 14.7769 36.1696 14.77 36.3142C14.76 36.4577 14.7391 36.6218 14.7072 36.8064C14.6765 36.9879 14.6252 37.1778 14.5534 37.3759C14.4355 37.701 14.2832 37.9716 14.0963 38.1876C13.9063 38.4025 13.6861 38.5608 13.4355 38.6627C13.1818 38.7634 12.8978 38.8076 12.5835 38.7953C12.2703 38.7798 11.928 38.7048 11.5564 38.5701C11.2004 38.4411 10.8977 38.2806 10.6485 38.0887C10.4004 37.8937 10.2097 37.6757 10.0764 37.4347C9.93994 37.1926 9.86384 36.9338 9.84807 36.6584C9.83032 36.3788 9.87475 36.0919 9.98136 35.7977C10.0958 35.4819 10.2461 35.2316 10.4321 35.0468C10.6182 34.8621 10.8268 34.731 11.058 34.6537C11.2873 34.5721 11.5313 34.5415 11.7902 34.5617C12.0502 34.5789 12.3102 34.6346 12.5703 34.7289L12.6818 34.7693ZM12.3122 35.2816C11.8697 35.1107 11.4843 35.0867 11.1561 35.2094C10.8279 35.3321 10.5897 35.5979 10.4416 36.0066C10.3653 36.2171 10.3382 36.4175 10.3604 36.6076C10.3805 36.7936 10.4355 36.9659 10.5251 37.1245C10.6159 37.28 10.7373 37.4185 10.8893 37.5402C11.0383 37.6608 11.204 37.7593 11.3864 37.836L12.3122 35.2816Z" fill="white"></path>
  <path d="M17.0691 31.4458C17.0866 31.4549 17.1005 31.4675 17.1106 31.4838C17.1207 31.5001 17.1249 31.5208 17.1232 31.5458C17.123 31.5679 17.1167 31.5981 17.1045 31.6362C17.0938 31.6714 17.0757 31.714 17.0501 31.7638C17.023 31.8165 16.9975 31.8589 16.9736 31.8911C16.9512 31.9203 16.9304 31.9429 16.911 31.9589C16.8932 31.9719 16.8747 31.9791 16.8556 31.9804C16.8364 31.9816 16.818 31.9778 16.8005 31.9687L14.4408 30.7567C14.1947 30.6303 13.9858 30.547 13.8139 30.5068C13.6391 30.4652 13.4779 30.4546 13.3304 30.4751C13.1799 30.494 13.0446 30.5485 12.9243 30.6386C12.8026 30.7241 12.7011 30.846 12.6199 31.0042C12.516 31.2063 12.484 31.4453 12.5237 31.7212C12.5634 31.9971 12.6652 32.3178 12.8292 32.6834L15.6809 34.1482C15.6985 34.1572 15.7124 34.1699 15.7225 34.1862C15.7326 34.2025 15.7368 34.2232 15.7351 34.2482C15.7348 34.2703 15.7286 34.3004 15.7164 34.3386C15.7057 34.3738 15.6869 34.4178 15.6598 34.4705C15.6342 34.5203 15.6094 34.5613 15.5855 34.5935C15.5631 34.6227 15.5422 34.6453 15.5229 34.6613C15.5036 34.6773 15.4844 34.6859 15.4652 34.6871C15.4475 34.6855 15.4299 34.6801 15.4124 34.6711L11.4357 32.6284C11.4181 32.6194 11.4035 32.6082 11.3919 32.5948C11.3817 32.5785 11.3775 32.5579 11.3793 32.5328C11.3781 32.5063 11.3836 32.4776 11.3957 32.4468C11.4064 32.4116 11.4245 32.3691 11.4501 32.3193C11.4757 32.2695 11.4997 32.23 11.5221 32.2008C11.5416 32.1701 11.5617 32.1489 11.5824 32.1374C11.6002 32.1243 11.618 32.1186 11.6356 32.1203C11.6548 32.119 11.6731 32.1229 11.6907 32.1319L12.2532 32.4208C12.1157 32.0614 12.0462 31.7425 12.0448 31.4641C12.0435 31.1857 12.0984 30.9382 12.2098 30.7214C12.3437 30.4607 12.5005 30.2635 12.6802 30.13C12.8598 29.9964 13.0522 29.9138 13.2573 29.8822C13.4639 29.8476 13.6788 29.858 13.9021 29.9135C14.1269 29.966 14.3799 30.0645 14.6611 30.2089L17.0691 31.4458Z" fill="white"></path>
  <path d="M18.9943 27.2923C19.0271 27.3144 19.0562 27.336 19.0817 27.3571C19.1045 27.3764 19.1236 27.3952 19.139 27.4135C19.1545 27.4318 19.1667 27.452 19.1757 27.474C19.1839 27.4913 19.1938 27.5298 19.2054 27.5892C19.217 27.6486 19.2216 27.739 19.2193 27.8605C19.2188 27.9793 19.2041 28.1043 19.1752 28.2357C19.1463 28.3671 19.1037 28.5012 19.0474 28.638C18.9938 28.7766 18.9238 28.9101 18.8374 29.0385C18.6646 29.2953 18.4687 29.495 18.2498 29.6374C18.03 29.7753 17.7917 29.8551 17.535 29.8769C17.2755 29.8968 17.0002 29.8604 16.7093 29.7678C16.4174 29.6706 16.1116 29.5145 15.7919 29.2994C15.4313 29.0567 15.151 28.8066 14.9512 28.549C14.7532 28.2888 14.6228 28.0284 14.56 27.7678C14.4972 27.5072 14.4946 27.2514 14.5523 27.0005C14.6092 26.745 14.7148 26.5025 14.8692 26.273C14.952 26.15 15.0433 26.0408 15.1433 25.9453C15.2405 25.848 15.3395 25.7658 15.4403 25.6986C15.5429 25.6287 15.6436 25.5734 15.7424 25.5328C15.8413 25.4921 15.9195 25.4673 15.9771 25.4584C16.0337 25.445 16.0753 25.4392 16.1018 25.4412C16.1274 25.4385 16.153 25.4418 16.1785 25.4511C16.2059 25.4576 16.2341 25.4687 16.2633 25.4843C16.2897 25.4981 16.3207 25.517 16.3562 25.5409C16.4354 25.5942 16.4832 25.6442 16.4994 25.6909C16.5148 25.7329 16.5133 25.7676 16.4949 25.795C16.4691 25.8332 16.4124 25.8645 16.3246 25.8888C16.2386 25.9103 16.1375 25.9455 16.0213 25.9943C15.9024 26.0413 15.776 26.1111 15.6423 26.2037C15.5104 26.2935 15.3865 26.4245 15.2706 26.5967C15.0316 26.9519 14.9835 27.3184 15.1261 27.6962C15.2707 28.0713 15.6011 28.4327 16.1175 28.7802C16.3771 28.9548 16.6227 29.0824 16.8544 29.1628C17.0833 29.2415 17.2955 29.2771 17.491 29.2697C17.6856 29.2578 17.8626 29.2042 18.0219 29.109C18.1785 29.0119 18.3157 28.876 18.4333 28.7011C18.5436 28.5372 18.6151 28.3749 18.6478 28.2143C18.6805 28.0537 18.6966 27.9058 18.6963 27.7706C18.696 27.6354 18.6901 27.5203 18.6786 27.4252C18.669 27.3275 18.6743 27.2635 18.6945 27.2335C18.7055 27.2171 18.7202 27.2071 18.7385 27.2035C18.7559 27.1954 18.7783 27.1946 18.8056 27.2011C18.8303 27.2058 18.8585 27.2168 18.8904 27.2343C18.9214 27.2472 18.9561 27.2666 18.9943 27.2923Z" fill="white"></path>
  <path d="M21.2337 25.7544L22.1164 27.3076C22.1336 27.3435 22.1341 27.3891 22.1179 27.4443C22.1042 27.5016 22.0603 27.5744 21.9862 27.6627C21.9481 27.7081 21.9138 27.7438 21.8834 27.7698C21.8529 27.7959 21.8227 27.8114 21.7928 27.8163C21.7674 27.8209 21.7424 27.8149 21.7176 27.7984C21.6953 27.7839 21.6743 27.7577 21.6546 27.7197L20.8463 26.216C20.8218 26.2299 20.7944 26.2369 20.764 26.2373C20.7337 26.2376 20.7075 26.2329 20.6856 26.2231L16.2996 24.6642C16.2537 24.6472 16.2206 24.6302 16.2004 24.6133C16.1777 24.5942 16.1654 24.5731 16.1633 24.5499C16.1634 24.5242 16.1749 24.4951 16.1978 24.4627C16.2203 24.4257 16.2537 24.3807 16.2982 24.3277C16.3447 24.2722 16.3843 24.2302 16.4169 24.2016C16.4469 24.1709 16.4731 24.1499 16.4955 24.1386C16.52 24.1248 16.5418 24.1194 16.5607 24.1224C16.5818 24.1229 16.6044 24.1268 16.6284 24.134L20.5165 25.5717L20.5292 25.5565L18.4225 21.996C18.3977 21.9537 18.3888 21.9183 18.3956 21.8896C18.4021 21.8563 18.4188 21.821 18.446 21.7835C18.4705 21.744 18.504 21.699 18.5463 21.6485C18.5866 21.6006 18.6219 21.5636 18.6524 21.5376C18.6849 21.509 18.7139 21.4925 18.7392 21.4879C18.7645 21.4834 18.7885 21.4906 18.8112 21.5097C18.8314 21.5266 18.8526 21.5551 18.8748 21.5953L21.2337 25.7544Z" fill="white"></path>
  <path d="M36.137 14.7485C36.1458 14.7662 36.1495 14.7846 36.148 14.8037C36.1465 14.8229 36.1362 14.8428 36.1171 14.8634C36.1009 14.8825 36.0766 14.9039 36.0441 14.9274C36.0147 14.9495 35.9734 14.9738 35.9204 15.0003C35.8733 15.0238 35.8306 15.0415 35.7923 15.0533C35.754 15.0651 35.7223 15.0717 35.6973 15.0731C35.6722 15.0746 35.6516 15.0702 35.6354 15.0599C35.6192 15.0496 35.6067 15.0356 35.5979 15.0179L33.021 9.86099L33.0122 9.86541L33.3553 16.1772C33.3552 16.1919 33.3523 16.2081 33.3464 16.2258C33.339 16.2405 33.3265 16.2559 33.3088 16.2721C33.2926 16.2913 33.2705 16.3097 33.2425 16.3274C33.219 16.3465 33.188 16.3656 33.1497 16.3848C33.1085 16.4054 33.0717 16.4201 33.0393 16.4289C33.0083 16.4407 32.9804 16.4473 32.9553 16.4488C32.9347 16.4517 32.9163 16.4517 32.9001 16.4488C32.8824 16.4429 32.8692 16.4348 32.8603 16.4245L28.1293 12.3054L28.1248 12.3076L30.7017 17.4645C30.7105 17.4821 30.7142 17.5005 30.7127 17.5197C30.7112 17.5388 30.7009 17.5587 30.6818 17.5793C30.6656 17.5985 30.6413 17.6198 30.6089 17.6434C30.5794 17.6655 30.5367 17.6905 30.4807 17.7185C30.4306 17.7435 30.3864 17.7619 30.3481 17.7737C30.3128 17.784 30.2826 17.7898 30.2576 17.7913C30.2325 17.7928 30.2119 17.7884 30.1957 17.778C30.1825 17.7663 30.1714 17.7515 30.1626 17.7338L27.4886 12.3825C27.4356 12.2765 27.4275 12.1903 27.4643 12.124C27.4997 12.0548 27.5439 12.007 27.5969 11.9805L27.8886 11.8347C27.9622 11.7979 28.0314 11.7744 28.0963 11.7641C28.1596 11.7509 28.22 11.7501 28.2774 11.7619C28.3363 11.7693 28.3915 11.7877 28.4431 11.8172C28.4946 11.8467 28.5462 11.8835 28.5977 11.9277L32.7545 15.5275L32.7766 15.5165L32.4819 10.0089C32.4761 9.92345 32.4776 9.84907 32.4864 9.78574C32.4967 9.718 32.5122 9.66056 32.5328 9.61344C32.5564 9.56484 32.5859 9.52435 32.6212 9.49196C32.6595 9.45809 32.7037 9.42865 32.7538 9.40362L33.0764 9.24243C33.1029 9.22918 33.1331 9.21961 33.167 9.21373C33.2009 9.20785 33.2355 9.2108 33.2708 9.22259C33.3047 9.23144 33.3378 9.24986 33.3702 9.27785C33.4056 9.30437 33.4365 9.34414 33.463 9.39717L36.137 14.7485Z" fill="white"></path>
  <path d="M40.451 13.4278C40.4607 13.4592 40.4574 13.4878 40.4412 13.5135C40.4272 13.535 40.4038 13.5543 40.3711 13.5712C40.3425 13.5904 40.2999 13.6087 40.2433 13.6261C40.1898 13.6426 40.1427 13.6519 40.102 13.6541C40.0623 13.6594 40.029 13.6576 40.0021 13.6487C39.9774 13.6356 39.9602 13.6133 39.9505 13.5819L39.8037 13.105C39.6757 13.3719 39.5127 13.5978 39.3146 13.7828C39.1198 13.9669 38.898 14.0972 38.6494 14.1738C38.4259 14.2426 38.2157 14.2763 38.0189 14.2749C37.8242 14.2693 37.649 14.232 37.4933 14.1628C37.3367 14.0904 37.2015 13.9873 37.0879 13.8534C36.9744 13.7195 36.888 13.5566 36.8289 13.3646C36.7562 13.1286 36.742 12.9089 36.7863 12.7058C36.8295 12.4995 36.923 12.3105 37.0665 12.1388C37.2101 11.9671 37.399 11.8142 37.6334 11.68C37.8667 11.5426 38.1376 11.4265 38.4461 11.3315L39.1259 11.1222L39.0125 10.7539C38.9563 10.5714 38.888 10.4166 38.8076 10.2898C38.7262 10.1598 38.6285 10.0607 38.5145 9.9924C38.4004 9.92415 38.2684 9.88725 38.1186 9.88171C37.9687 9.87618 37.7962 9.90345 37.601 9.96354C37.4122 10.0217 37.2495 10.0976 37.1129 10.1914C36.9754 10.282 36.8588 10.373 36.7629 10.4646C36.667 10.5561 36.5886 10.6371 36.5276 10.7076C36.4688 10.7739 36.4236 10.812 36.3922 10.8217C36.3733 10.8275 36.355 10.8297 36.3373 10.8282C36.3196 10.8268 36.3021 10.8201 36.2846 10.8082C36.2694 10.7923 36.2547 10.7727 36.2407 10.7494C36.2288 10.7221 36.2171 10.6895 36.2054 10.6517C36.1851 10.5856 36.1738 10.5322 36.1716 10.4916C36.1685 10.4477 36.18 10.4011 36.2061 10.3517C36.2344 10.2982 36.2907 10.2292 36.3749 10.1447C36.4592 10.0602 36.559 9.97599 36.6745 9.89219C36.7922 9.80428 36.9222 9.72289 37.0645 9.64805C37.2069 9.5732 37.3536 9.51251 37.5047 9.46599C37.7974 9.37586 38.0556 9.33597 38.2793 9.34634C38.5021 9.35355 38.6952 9.40436 38.8586 9.49875C39.0253 9.59218 39.1654 9.72822 39.2789 9.90689C39.3916 10.0824 39.4857 10.2929 39.5613 10.5384L40.451 13.4278ZM39.2684 11.5848L38.4894 11.8247C38.2628 11.8945 38.0708 11.976 37.9135 12.0692C37.7561 12.1625 37.6329 12.2659 37.5438 12.3795C37.4547 12.4931 37.3988 12.6137 37.3761 12.7413C37.3565 12.8679 37.3685 13.002 37.4121 13.1437C37.4877 13.3892 37.6254 13.5621 37.8252 13.6626C38.0271 13.7589 38.2697 13.7634 38.553 13.6762C38.7765 13.6074 38.9668 13.4868 39.1239 13.3144C39.2832 13.1378 39.4345 12.8965 39.5781 12.5904L39.2684 11.5848Z" fill="white"></path>
  <path d="M43.4757 8.44458C43.4854 8.49303 43.4921 8.53535 43.4959 8.57152C43.4991 8.60446 43.4981 8.6332 43.4929 8.65774C43.4903 8.6784 43.4838 8.69648 43.4735 8.71197C43.4657 8.72358 43.4521 8.73131 43.4327 8.73516C43.4037 8.74094 43.3685 8.74122 43.3271 8.736C43.2852 8.72755 43.2367 8.72038 43.1818 8.7145C43.127 8.70862 43.0675 8.70531 43.0036 8.70458C42.939 8.70062 42.8696 8.70603 42.7953 8.72079C42.7081 8.73811 42.6263 8.7745 42.55 8.82995C42.4731 8.88216 42.3962 8.95957 42.3192 9.06216C42.2448 9.16088 42.1694 9.28834 42.0929 9.44455C42.0198 9.60011 41.9414 9.7886 41.8578 10.01L42.4469 12.9753C42.4507 12.9947 42.4494 13.0134 42.4429 13.0315C42.4365 13.0496 42.4229 13.0657 42.4022 13.0799C42.3847 13.0934 42.3573 13.1073 42.3198 13.1214C42.2855 13.1349 42.2393 13.1475 42.1812 13.159C42.1263 13.1699 42.0788 13.176 42.0388 13.1772C42.0019 13.1778 41.9713 13.1755 41.9467 13.1703C41.9222 13.1652 41.9035 13.1554 41.8906 13.1412C41.8809 13.1263 41.8742 13.1092 41.8703 13.0898L40.9992 8.70492C40.9953 8.68554 40.995 8.66713 40.9983 8.6497C41.0047 8.63162 41.0183 8.61549 41.039 8.60131C41.0591 8.5839 41.0849 8.57037 41.1166 8.56072C41.1508 8.5472 41.1954 8.53499 41.2503 8.52408C41.3052 8.51317 41.3511 8.50742 41.3879 8.50682C41.4241 8.50299 41.4531 8.50561 41.4751 8.51468C41.4964 8.52052 41.5119 8.53087 41.5215 8.54574C41.5344 8.55997 41.5428 8.57677 41.5467 8.59615L41.6843 9.28901C41.7737 9.07987 41.8605 8.90818 41.9446 8.77395C42.0287 8.63972 42.1132 8.53229 42.1979 8.45166C42.282 8.36781 42.367 8.30559 42.4529 8.26501C42.5421 8.22379 42.6351 8.19355 42.732 8.1743C42.774 8.16596 42.8231 8.15956 42.8793 8.15512C42.9349 8.14744 42.9946 8.14396 43.0586 8.14469C43.1257 8.14477 43.1855 8.14969 43.2378 8.15945C43.2927 8.16533 43.3314 8.17442 43.354 8.18672C43.3759 8.1958 43.3914 8.20615 43.4005 8.21779C43.4088 8.22619 43.4166 8.23977 43.4237 8.25851C43.4333 8.27337 43.4414 8.29696 43.4478 8.32926C43.4568 8.35769 43.4661 8.39613 43.4757 8.44458Z" fill="white"></path>
  <path d="M48.5916 12.1362C48.5938 12.1591 48.5908 12.1793 48.5826 12.1966C48.5743 12.2139 48.5593 12.2303 48.5377 12.2456C48.5157 12.2577 48.4853 12.2689 48.4466 12.2792C48.4079 12.2896 48.3574 12.2978 48.2951 12.3038C48.2296 12.3101 48.1752 12.3121 48.1319 12.3097C48.089 12.3105 48.0507 12.3076 48.0169 12.3009C47.9865 12.2939 47.959 12.2834 47.9345 12.2692C47.9132 12.2547 47.8916 12.2369 47.8698 12.2159L45.5406 9.89017L45.785 12.4175C45.7869 12.4372 45.7837 12.4557 45.7754 12.473C45.7672 12.4904 45.7521 12.505 45.7301 12.5171C45.7114 12.5288 45.6826 12.5399 45.6439 12.5502C45.6085 12.5603 45.5613 12.5682 45.5023 12.5739C45.4466 12.5793 45.3987 12.5806 45.3588 12.5778C45.3221 12.5748 45.2918 12.5694 45.2679 12.5618C45.244 12.5542 45.2263 12.5427 45.2149 12.5272C45.2068 12.5115 45.2017 12.4937 45.1998 12.4741L44.5589 5.846C44.557 5.82633 44.5586 5.80798 44.5635 5.79096C44.5718 5.77362 44.5869 5.75892 44.6089 5.74687C44.6306 5.73154 44.6593 5.72049 44.695 5.71373C44.7337 5.70337 44.7809 5.69549 44.8367 5.6901C44.8957 5.6844 44.9435 5.68308 44.9802 5.68615C45.0199 5.68562 45.0501 5.69097 45.0711 5.70218C45.095 5.70979 45.1126 5.72132 45.1241 5.73676C45.1355 5.7522 45.1421 5.76975 45.144 5.78942L45.5396 9.88034L47.2299 7.80615C47.2533 7.77412 47.2773 7.74863 47.302 7.72971C47.3296 7.70719 47.3593 7.68943 47.3911 7.67642C47.4226 7.66014 47.4595 7.6483 47.5018 7.6409C47.5438 7.63022 47.5926 7.62219 47.6484 7.6168C47.7041 7.61141 47.7518 7.60846 47.7914 7.60793C47.8344 7.60709 47.8694 7.61032 47.8966 7.61761C47.9238 7.62491 47.9447 7.63612 47.9594 7.65125C47.9738 7.66309 47.9821 7.68048 47.9843 7.70343C47.9875 7.73621 47.9808 7.76994 47.9643 7.80462C47.9475 7.83603 47.9169 7.87869 47.8725 7.93261L46.2551 9.78634L48.46 11.9553C48.5073 12.0004 48.5405 12.0352 48.5594 12.0599C48.5783 12.0845 48.5891 12.11 48.5916 12.1362Z" fill="white"></path>
  <path d="M52.9969 9.73049C52.9947 9.84903 52.9618 9.93074 52.8983 9.97563C52.8349 10.0172 52.7736 10.0375 52.7144 10.0363L49.667 9.97749C49.6617 10.2541 49.6832 10.5048 49.7315 10.7297C49.7832 10.9547 49.87 11.1491 49.992 11.3128C50.1141 11.4733 50.2747 11.5983 50.4739 11.6878C50.6731 11.7773 50.9192 11.8248 51.2123 11.8305C51.4197 11.8345 51.6061 11.82 51.7715 11.7869C51.9368 11.7539 52.0791 11.7171 52.1985 11.6766C52.3212 11.6328 52.4208 11.5936 52.4972 11.5588C52.5769 11.5241 52.6333 11.5071 52.6662 11.5077C52.6859 11.5081 52.704 11.5134 52.7202 11.5236C52.7365 11.5338 52.7494 11.5505 52.7588 11.5738C52.7683 11.5937 52.7744 11.6202 52.777 11.6532C52.783 11.6862 52.7855 11.7274 52.7845 11.7768C52.7841 11.7999 52.782 11.8229 52.7782 11.8459C52.7746 11.8656 52.7692 11.8852 52.7623 11.9049C52.7587 11.9213 52.7518 11.9376 52.7416 11.9539C52.7314 11.9702 52.7179 11.9864 52.7011 12.0025C52.6843 12.0187 52.6327 12.0473 52.5463 12.0885C52.4599 12.1263 52.3472 12.1653 52.208 12.2054C52.069 12.2423 51.907 12.2754 51.7219 12.3048C51.5402 12.3342 51.344 12.3469 51.1332 12.3428C50.7875 12.3361 50.4823 12.2792 50.2175 12.172C49.9529 12.0615 49.7319 11.904 49.5547 11.6997C49.3775 11.492 49.2441 11.2375 49.1544 10.936C49.068 10.6346 49.0286 10.2863 49.0362 9.8912C49.0435 9.51255 49.0978 9.17433 49.1991 8.87654C49.3037 8.57881 49.4485 8.32798 49.6336 8.12404C49.8188 7.9168 50.0392 7.7613 50.2948 7.65754C50.5538 7.55055 50.8397 7.50007 51.1525 7.50611C51.4883 7.51259 51.7737 7.57409 52.0086 7.69062C52.2435 7.80715 52.4349 7.96236 52.5827 8.15626C52.7338 8.34692 52.8415 8.56805 52.9058 8.81962C52.9734 9.07126 53.0046 9.33538 52.9992 9.61196L52.9969 9.73049ZM52.3928 9.5459C52.4118 9.07195 52.3103 8.69943 52.0883 8.42834C51.8662 8.15725 51.5379 8.01751 51.1032 8.00912C50.8793 8.0048 50.681 8.04379 50.5081 8.12609C50.3386 8.20517 50.1932 8.31271 50.072 8.44871C49.9541 8.58478 49.8621 8.7444 49.796 8.92758C49.7299 9.10747 49.69 9.2961 49.6763 9.49347L52.3928 9.5459Z" fill="white"></path>
  <path d="M56.4097 12.332C56.4012 12.4006 56.3878 12.4554 56.3694 12.4963C56.3544 12.5375 56.3321 12.5696 56.3027 12.5925C56.277 12.6126 56.2382 12.631 56.1864 12.6478C56.1382 12.6617 56.0822 12.6714 56.0185 12.6768C55.9544 12.6854 55.8876 12.6887 55.8182 12.6868C55.7483 12.6881 55.6807 12.6847 55.6154 12.6766C55.3964 12.6494 55.2137 12.5969 55.0674 12.5191C54.9211 12.4412 54.8062 12.3373 54.7227 12.2075C54.6397 12.0745 54.5866 11.9136 54.5636 11.7249C54.5437 11.5366 54.5492 11.3183 54.58 11.0699L54.9221 8.30982L54.2603 8.22779C54.2145 8.22212 54.181 8.19805 54.1597 8.15559C54.1389 8.10986 54.1335 8.04614 54.1436 7.96444C54.1489 7.92195 54.1566 7.88641 54.1668 7.8578C54.1774 7.82593 54.1904 7.801 54.2059 7.78301C54.2218 7.76175 54.2386 7.74723 54.2561 7.73945C54.2769 7.73208 54.2988 7.72981 54.3217 7.73265L54.9835 7.81468L55.1184 6.72634C55.1208 6.70673 55.1263 6.68916 55.1349 6.67363C55.1467 6.65851 55.1647 6.64746 55.1888 6.64049C55.2133 6.63025 55.2437 6.62573 55.28 6.62691C55.3201 6.62524 55.3679 6.62784 55.4234 6.63473C55.4823 6.64202 55.5292 6.65116 55.5644 6.66216C55.6032 6.67029 55.6316 6.6821 55.6496 6.69761C55.6712 6.71025 55.686 6.72535 55.6937 6.7429C55.7015 6.76046 55.7042 6.77904 55.7018 6.79865L55.5669 7.88698L56.7925 8.03889C56.8154 8.04173 56.8344 8.04906 56.8495 8.06089C56.8679 8.07312 56.8822 8.09149 56.8924 8.11599C56.9031 8.13722 56.9096 8.16458 56.9121 8.19807C56.915 8.2283 56.9138 8.26465 56.9086 8.30714C56.8984 8.38885 56.876 8.44912 56.8413 8.48796C56.8103 8.52394 56.7736 8.5393 56.7311 8.53403L55.5055 8.38212L55.1731 11.0637C55.1314 11.4004 55.147 11.6628 55.2199 11.851C55.2961 12.0397 55.4616 12.1498 55.7166 12.1814C55.795 12.1911 55.8663 12.1916 55.9304 12.183C55.9978 12.1748 56.0572 12.1639 56.1087 12.1503C56.1601 12.1368 56.2032 12.1239 56.2379 12.1116C56.2759 12.0997 56.3079 12.0954 56.3341 12.0986C56.3504 12.1007 56.3647 12.1058 56.377 12.1139C56.3893 12.1221 56.3974 12.1364 56.4015 12.1568C56.4093 12.1743 56.413 12.198 56.4127 12.2278C56.4159 12.2548 56.415 12.2895 56.4097 12.332Z" fill="white"></path>
  <path d="M57.9864 12.9031C57.9827 12.9225 57.9743 12.9394 57.9615 12.9536C57.9487 12.9679 57.93 12.9777 57.9055 12.983C57.8842 12.9889 57.8535 12.9913 57.8135 12.9902C57.7766 12.9898 57.7291 12.9839 57.671 12.9726C57.616 12.9619 57.5698 12.9495 57.5322 12.9355C57.4979 12.9221 57.4704 12.9084 57.4497 12.8943C57.4289 12.8801 57.4153 12.8641 57.4087 12.846C57.4054 12.8286 57.4056 12.8102 57.4094 12.7908L58.2638 8.40258C58.2676 8.38318 58.2743 8.36603 58.2839 8.35113C58.2967 8.33685 58.3154 8.32707 58.3399 8.32178C58.3651 8.31325 58.3957 8.31084 58.4319 8.31453C58.472 8.31562 58.5195 8.32151 58.5744 8.33221C58.6326 8.34354 58.6789 8.3559 58.7132 8.36928C58.7513 8.38007 58.7788 8.39382 58.7957 8.41052C58.8165 8.42463 58.8301 8.4407 58.8367 8.45875C58.8432 8.4768 58.8446 8.49553 58.8408 8.51492L57.9864 12.9031ZM59.216 7.05302C59.1858 7.20818 59.1379 7.30789 59.0722 7.35214C59.0066 7.3964 58.901 7.40436 58.7556 7.37604C58.6133 7.34835 58.5198 7.30329 58.4749 7.24087C58.4339 7.17585 58.4285 7.06575 58.4587 6.91059C58.4889 6.75543 58.5368 6.65572 58.6025 6.61146C58.6681 6.56721 58.7737 6.55924 58.9191 6.58756C59.0614 6.61526 59.153 6.66162 59.194 6.72664C59.2389 6.78906 59.2462 6.89785 59.216 7.05302Z" fill="white"></path>
  <path d="M62.721 14.1389C62.7155 14.1579 62.7057 14.1739 62.6916 14.1869C62.6775 14.2 62.658 14.208 62.6331 14.2111C62.6114 14.215 62.5806 14.2146 62.5408 14.2099C62.5042 14.2061 62.459 14.1963 62.4053 14.1807C62.3484 14.1641 62.3018 14.1471 62.2657 14.1297C62.2328 14.1133 62.2067 14.0971 62.1873 14.0811C62.1711 14.0661 62.1605 14.0493 62.1557 14.0308C62.1508 14.0122 62.1511 13.9934 62.1566 13.9744L62.8989 11.4277C62.9763 11.1621 63.0184 10.9411 63.0252 10.7647C63.0329 10.5852 63.0127 10.4249 62.9646 10.284C62.9174 10.1399 62.8382 10.0173 62.727 9.91629C62.6199 9.81303 62.481 9.73653 62.3103 9.68677C62.0921 9.62319 61.8514 9.63707 61.5881 9.72841C61.3247 9.81976 61.0292 9.9806 60.7013 10.2109L59.8043 13.2889C59.7988 13.3079 59.789 13.3239 59.7749 13.3369C59.7608 13.3499 59.7413 13.358 59.7164 13.361C59.6947 13.365 59.6639 13.3646 59.6241 13.3599C59.5875 13.356 59.5407 13.3458 59.4838 13.3293C59.4301 13.3136 59.3851 13.2971 59.349 13.2797C59.3161 13.2632 59.29 13.247 59.2706 13.2311C59.2512 13.2152 59.2391 13.1979 59.2342 13.1793C59.2325 13.1617 59.2344 13.1434 59.2399 13.1244L60.4908 8.83235C60.4963 8.81338 60.5046 8.79691 60.5155 8.78294C60.5296 8.7699 60.5491 8.76186 60.574 8.75882C60.5998 8.75263 60.629 8.75255 60.6615 8.75861C60.6981 8.76242 60.7433 8.77216 60.7971 8.78782C60.8508 8.80349 60.8942 8.81955 60.9271 8.83601C60.961 8.84931 60.9855 8.86504 61.0008 8.88322C61.017 8.89823 61.026 8.91457 61.0277 8.93222C61.0326 8.95079 61.0323 8.96956 61.0267 8.98853L60.8498 9.59559C61.1766 9.39239 61.4765 9.26369 61.7496 9.20949C62.0227 9.15529 62.2762 9.16229 62.5101 9.23048C62.7915 9.31248 63.0148 9.42902 63.1801 9.58008C63.3453 9.73114 63.4629 9.90434 63.5329 10.0997C63.606 10.2959 63.6366 10.509 63.6245 10.7387C63.6156 10.9694 63.5669 11.2364 63.4784 11.54L62.721 14.1389Z" fill="white"></path>
  <path d="M69.2452 12.1594C69.2083 12.2439 69.169 12.2968 69.1274 12.3182C69.0857 12.3395 69.0438 12.341 69.0015 12.3226L68.354 12.0401C68.4242 12.2252 68.4498 12.4053 68.431 12.5803C68.4165 12.7536 68.3723 12.9248 68.2986 13.0938C68.1972 13.3263 68.0693 13.5166 67.9148 13.6648C67.7633 13.8143 67.5921 13.9228 67.4009 13.9903C67.2111 14.0548 67.0081 14.0795 66.792 14.0642C66.5759 14.049 66.3546 13.992 66.1282 13.8932C65.9441 13.8129 65.7802 13.7109 65.6366 13.5871C65.4929 13.4634 65.3908 13.3434 65.3301 13.2271C65.2434 13.2611 65.1633 13.3088 65.0899 13.3702C65.0164 13.4316 64.9573 13.5136 64.9125 13.6162C64.8625 13.7309 64.8746 13.8512 64.9491 13.9771C65.0265 14.1043 65.1515 14.2091 65.3239 14.2915L66.4135 14.8207C66.598 14.9084 66.7619 15.0104 66.9051 15.1268C67.0514 15.2445 67.1667 15.3756 67.2509 15.5202C67.3365 15.6617 67.3872 15.8132 67.403 15.9746C67.4189 16.136 67.3886 16.3042 67.3122 16.4793C67.2332 16.6604 67.1198 16.8175 66.9719 16.9506C66.827 17.085 66.6491 17.1799 66.4381 17.2352C66.2289 17.2948 65.9877 17.3082 65.7146 17.2753C65.4402 17.2454 65.1355 17.1574 64.8004 17.0112C64.4805 16.8716 64.2198 16.7238 64.0184 16.5677C63.8187 16.4159 63.6682 16.2586 63.5668 16.0958C63.467 15.9373 63.4129 15.7772 63.4044 15.6154C63.399 15.4549 63.4298 15.2977 63.497 15.1437C63.5431 15.0381 63.5986 14.9437 63.6636 14.8607C63.7286 14.7777 63.8036 14.7044 63.8888 14.641C63.977 14.5788 64.0744 14.5243 64.1811 14.4774C64.2908 14.4319 64.4117 14.3894 64.5439 14.3501C64.4242 14.2044 64.3524 14.0599 64.3287 13.9167C64.305 13.7734 64.3208 13.6383 64.3761 13.5116C64.4577 13.3244 64.5657 13.1757 64.7 13.0654C64.8357 12.9521 64.9799 12.8605 65.1325 12.7906C65.095 12.6377 65.0817 12.4828 65.0927 12.3259C65.1037 12.169 65.1506 11.9955 65.2336 11.8053C65.3337 11.5759 65.4609 11.3871 65.6154 11.2389C65.7712 11.0877 65.9431 10.9776 66.1313 10.9088C66.3224 10.8413 66.526 10.8151 66.7422 10.8304C66.9596 10.8426 67.18 10.8974 67.4034 10.9948C67.5211 11.0462 67.628 11.1018 67.724 11.1617C67.8244 11.2198 67.9138 11.2786 67.9921 11.3379L69.201 11.8653C69.2523 11.8876 69.28 11.9231 69.284 11.9715C69.291 12.0213 69.2781 12.0839 69.2452 12.1594ZM67.7377 12.8599C67.8733 12.549 67.8933 12.2685 67.7976 12.0184C67.705 11.7695 67.5017 11.5767 67.1877 11.4397C67.0278 11.3699 66.8755 11.3359 66.7311 11.3375C66.5867 11.3392 66.4548 11.3697 66.3355 11.429C66.2162 11.4884 66.1099 11.5714 66.0167 11.678C65.9234 11.7847 65.8465 11.9074 65.786 12.0463C65.6543 12.3481 65.6348 12.6234 65.7275 12.8723C65.8245 13.1194 66.0269 13.3101 66.3348 13.4444C66.4978 13.5155 66.6515 13.5502 66.796 13.5486C66.9434 13.5482 67.0762 13.5199 67.1941 13.4636C67.3134 13.4042 67.4191 13.3227 67.511 13.2191C67.6042 13.1125 67.6798 12.9928 67.7377 12.8599ZM66.7596 16.2759C66.8465 16.0767 66.8315 15.8887 66.7146 15.712C66.6007 15.5365 66.4099 15.385 66.1421 15.2575L64.9691 14.6972C64.8235 14.7343 64.6996 14.7755 64.5973 14.8207C64.4949 14.8658 64.4075 14.9139 64.3349 14.9649C64.2641 15.0203 64.2066 15.0778 64.1626 15.1377C64.1172 15.2005 64.0794 15.2666 64.0491 15.3361C63.9516 15.5594 63.9896 15.7772 64.1629 15.9893C64.3393 16.2028 64.6282 16.3971 65.0296 16.5722C65.2832 16.6828 65.5057 16.7494 65.6971 16.7718C65.8902 16.7985 66.0574 16.7942 66.1986 16.7588C66.3398 16.7234 66.4561 16.6627 66.5475 16.5768C66.6388 16.4909 66.7095 16.3906 66.7596 16.2759Z" fill="white"></path>
  <path d="M74.3053 20.2768C74.2936 20.3287 74.277 20.3673 74.2556 20.3926C74.2388 20.417 74.2162 20.4294 74.1879 20.4299C74.1623 20.4322 74.1296 20.4217 74.0897 20.3982C74.0507 20.3794 74.0028 20.3503 73.9458 20.3111C73.8889 20.2718 73.8446 20.2374 73.8131 20.2077C73.7824 20.1825 73.7604 20.1593 73.747 20.1381C73.7337 20.1169 73.7262 20.0958 73.7247 20.0748C73.7259 20.0556 73.729 20.0337 73.7339 20.0091L74.1965 18.2582L71.8859 16.6662L70.4405 17.728C70.422 17.7432 70.4027 17.7539 70.3825 17.76C70.3623 17.7661 70.339 17.768 70.3125 17.7657C70.2879 17.7608 70.2561 17.7489 70.2171 17.73C70.1809 17.713 70.137 17.6868 70.0854 17.6513C70.0285 17.612 69.9829 17.5766 69.9487 17.5451C69.9144 17.5135 69.8925 17.4844 69.8829 17.4577C69.8759 17.433 69.8795 17.4074 69.8936 17.3812C69.9104 17.3567 69.941 17.3298 69.9853 17.3003L75.2782 13.5625C75.3013 13.5464 75.3256 13.5372 75.3512 13.5348C75.3787 13.5297 75.4075 13.5316 75.4375 13.5402C75.4702 13.5508 75.5051 13.5668 75.5423 13.5884C75.584 13.6092 75.6279 13.6354 75.674 13.6672C75.7228 13.7008 75.7629 13.7325 75.7945 13.7622C75.8306 13.7911 75.858 13.818 75.8768 13.8429C75.8983 13.8697 75.9103 13.896 75.9126 13.9216C75.9195 13.9464 75.9196 13.9724 75.9128 13.9997L74.3053 20.2768ZM75.2656 14.2077L75.2615 14.2048L72.3183 16.3522L74.3318 17.7396L75.2656 14.2077Z" fill="white"></path>
  <path d="M80.3201 20.0228C80.2586 20.0915 80.2047 20.1294 80.1584 20.1366C80.1122 20.1438 80.0719 20.132 80.0376 20.1012L79.5116 19.6296C79.5201 19.8274 79.4878 20.0064 79.415 20.1666C79.3467 20.3266 79.2511 20.4753 79.1279 20.6126C78.9587 20.8014 78.7774 20.9419 78.5842 21.0341C78.3935 21.1284 78.1968 21.1776 77.9941 21.1817C77.7936 21.1833 77.5932 21.1429 77.3928 21.0606C77.1924 20.9782 77.0002 20.8546 76.8163 20.6897C76.6667 20.5556 76.5432 20.4073 76.4457 20.2447C76.3482 20.0821 76.2889 19.9361 76.2679 19.8066C76.1749 19.8117 76.0839 19.8318 75.9948 19.867C75.9058 19.9022 75.8239 19.9615 75.7492 20.0448C75.6656 20.138 75.6394 20.2561 75.6705 20.3989C75.7041 20.544 75.7898 20.6828 75.9276 20.8152L76.7958 21.6599C76.9434 21.8011 77.067 21.9494 77.1664 22.1049C77.2683 22.2626 77.3365 22.4233 77.3711 22.587C77.4079 22.7483 77.4085 22.908 77.3728 23.0662C77.3371 23.2244 77.2555 23.3746 77.128 23.5168C76.9961 23.6639 76.839 23.7775 76.6568 23.8574C76.4771 23.9395 76.2784 23.9736 76.0607 23.9599C75.8433 23.9507 75.6102 23.8877 75.3612 23.7706C75.1101 23.6561 74.8485 23.4768 74.5763 23.2328C74.3164 22.9997 74.1153 22.7775 73.9732 22.566C73.8313 22.3592 73.7378 22.1626 73.6926 21.9761C73.6477 21.7943 73.6467 21.6253 73.6894 21.4691C73.7347 21.315 73.8133 21.1754 73.9255 21.0504C74.0024 20.9646 74.0848 20.8924 74.1725 20.834C74.2603 20.7756 74.3546 20.7296 74.4554 20.6961C74.5586 20.6648 74.6682 20.6437 74.7842 20.6327C74.9027 20.6239 75.0308 20.6216 75.1687 20.6257C75.1008 20.4499 75.0781 20.2902 75.1005 20.1467C75.123 20.0032 75.1804 19.88 75.2728 19.777C75.4091 19.6249 75.5583 19.5177 75.7205 19.4552C75.8848 19.3903 76.0505 19.3486 76.2174 19.3301C76.2298 19.1732 76.2659 19.022 76.3256 18.8765C76.3853 18.7309 76.4844 18.5809 76.6229 18.4265C76.7899 18.2401 76.9701 18.1008 77.1633 18.0087C77.3587 17.914 77.5565 17.8636 77.7567 17.8573C77.9594 17.8533 78.1609 17.8924 78.3613 17.9748C78.5639 18.0547 78.7559 18.176 78.9374 18.3386C79.033 18.4244 79.117 18.5107 79.1894 18.5978C79.2665 18.6845 79.3328 18.7683 79.3886 18.8493L80.3706 19.7297C80.4123 19.7671 80.4274 19.8094 80.416 19.8567C80.4071 19.9061 80.3751 19.9615 80.3201 20.0228ZM78.6689 20.2144C78.8954 19.9618 79.0024 19.7017 78.9902 19.4342C78.9804 19.1689 78.848 18.9219 78.5929 18.6933C78.463 18.5768 78.3292 18.4966 78.1915 18.4528C78.0539 18.409 77.9191 18.3965 77.7872 18.4154C77.6553 18.4343 77.5283 18.4797 77.4063 18.5516C77.2843 18.6236 77.1727 18.716 77.0716 18.8288C76.8518 19.074 76.7468 19.3292 76.7566 19.5946C76.771 19.8596 76.9033 20.1043 77.1534 20.3285C77.2858 20.4472 77.4209 20.5285 77.5585 20.5723C77.6986 20.6183 77.8335 20.6331 77.9633 20.6167C78.0952 20.5978 78.221 20.5536 78.3408 20.4841C78.4628 20.4122 78.5722 20.3222 78.6689 20.2144ZM76.6672 23.1501C76.8123 22.9883 76.8571 22.8051 76.8016 22.6006C76.7486 22.3983 76.6151 22.1945 76.401 21.9893L75.4633 21.0889C75.3135 21.0784 75.1829 21.0786 75.0715 21.0893C74.9602 21.1 74.862 21.1182 74.7771 21.1438C74.6925 21.1741 74.6199 21.2107 74.5592 21.2537C74.4964 21.2991 74.4397 21.35 74.3892 21.4064C74.2265 21.5878 74.1941 21.8065 74.292 22.0624C74.3924 22.3204 74.6056 22.5956 74.9318 22.888C75.1378 23.0727 75.3281 23.2057 75.5028 23.2871C75.6777 23.3732 75.8378 23.4216 75.983 23.4324C76.1281 23.4431 76.2576 23.422 76.3713 23.3692C76.485 23.3163 76.5837 23.2433 76.6672 23.1501Z" fill="white"></path>
  <path d="M82.3604 25.0537C82.2713 25.1318 82.1887 25.1626 82.1128 25.1459C82.0394 25.1271 81.9831 25.0954 81.944 25.0509L79.9343 22.7594C79.7263 22.9418 79.5555 23.1266 79.4219 23.3139C79.2905 23.5037 79.2053 23.6988 79.1665 23.8993C79.1302 24.0976 79.1461 24.3005 79.2142 24.508C79.2823 24.7155 79.4129 24.9294 79.6062 25.1498C79.743 25.3057 79.8793 25.4337 80.0151 25.5336C80.1509 25.6335 80.274 25.7139 80.3844 25.7748C80.4994 25.836 80.5955 25.8832 80.6726 25.9162C80.752 25.9518 80.8025 25.9819 80.8242 26.0067C80.8373 26.0215 80.8455 26.0384 80.8489 26.0573C80.8524 26.0762 80.8487 26.097 80.8379 26.1196C80.8295 26.14 80.814 26.1624 80.7915 26.1866C80.771 26.2132 80.7423 26.2428 80.7051 26.2754C80.6878 26.2906 80.6694 26.3046 80.6499 26.3173C80.6328 26.3279 80.6147 26.3372 80.5955 26.3452C80.581 26.3536 80.5643 26.3595 80.5454 26.363C80.5265 26.3664 80.5054 26.3673 80.4822 26.3658C80.4589 26.3643 80.403 26.3455 80.3143 26.3093C80.2282 26.271 80.1234 26.214 80 26.1382C79.8791 26.0603 79.7455 25.9628 79.5991 25.8459C79.4549 25.7314 79.3133 25.595 79.1743 25.4365C78.9463 25.1765 78.7828 24.9126 78.6836 24.6448C78.587 24.3747 78.5544 24.1054 78.586 23.8367C78.6201 23.5659 78.7183 23.2958 78.8807 23.0264C79.0452 22.7595 79.276 22.4957 79.5731 22.2352C79.8578 21.9854 80.1443 21.7977 80.4326 21.6719C80.7231 21.5485 81.006 21.4866 81.2814 21.4859C81.5593 21.4831 81.8227 21.5412 82.0716 21.6602C82.3252 21.7795 82.5551 21.9568 82.7614 22.192C82.9829 22.4445 83.1297 22.6969 83.2019 22.949C83.2741 23.201 83.2883 23.447 83.2446 23.6869C83.2055 23.927 83.1147 24.1556 82.9721 24.3726C82.8317 24.5921 82.6575 24.7931 82.4495 24.9755L82.3604 25.0537ZM82.0898 24.4828C82.4528 24.1776 82.6597 23.8516 82.7104 23.5048C82.7611 23.1581 82.6432 22.8213 82.3565 22.4945C82.2089 22.3261 82.0464 22.2058 81.8691 22.1335C81.6965 22.0615 81.5191 22.0266 81.3369 22.0287C81.1569 22.0332 80.9769 22.0727 80.797 22.1473C80.6196 22.2197 80.4534 22.3173 80.2983 22.4402L82.0898 24.4828Z" fill="white"></path>
  <path d="M83.1152 30.6692C83.0988 30.6803 83.081 30.6864 83.0619 30.6875C83.0427 30.6885 83.0226 30.6823 83.0014 30.6688C82.9822 30.658 82.9587 30.638 82.9311 30.609C82.9053 30.5828 82.8767 30.5464 82.8453 30.5001C82.812 30.451 82.787 30.4083 82.7703 30.3719C82.7554 30.3382 82.7455 30.3091 82.7408 30.2845C82.7379 30.2626 82.7405 30.2429 82.7485 30.2255C82.7566 30.2081 82.7688 30.1938 82.7852 30.1827L84.9806 28.6937C85.2095 28.5384 85.3828 28.395 85.5005 28.2634C85.621 28.13 85.7076 27.9937 85.7603 27.8544C85.8158 27.7133 85.8329 27.5684 85.8117 27.4197C85.795 27.2718 85.7367 27.1243 85.6369 26.9772C85.5093 26.7891 85.315 26.6463 85.0539 26.5488C84.7928 26.4514 84.4625 26.3869 84.0631 26.3553L81.4098 28.1549C81.3935 28.166 81.3757 28.1721 81.3565 28.1732C81.3374 28.1742 81.3172 28.168 81.2961 28.1545C81.2768 28.1437 81.2534 28.1238 81.2258 28.0948C81.2 28.0685 81.1704 28.0308 81.1372 27.9817C81.1057 27.9354 81.0817 27.894 81.0649 27.8576C81.05 27.824 81.0402 27.7948 81.0355 27.7702C81.0307 27.7456 81.0324 27.7245 81.0404 27.7071C81.0504 27.6924 81.0635 27.6795 81.0799 27.6684L84.7797 25.159C84.7961 25.1479 84.8129 25.1405 84.8302 25.1367C84.8494 25.1356 84.8696 25.1418 84.8907 25.1554C84.9145 25.167 84.9371 25.1856 84.9583 25.211C84.984 25.2373 85.0127 25.2736 85.0441 25.3199C85.0755 25.3663 85.0987 25.4063 85.1135 25.4399C85.1312 25.4718 85.1401 25.4996 85.1402 25.5233C85.1432 25.5452 85.1396 25.5635 85.1297 25.5782C85.1216 25.5956 85.1094 25.6099 85.0931 25.621L84.5698 25.9759C84.9511 26.0276 85.2642 26.1197 85.5091 26.252C85.7541 26.3843 85.9449 26.5513 86.0817 26.753C86.2463 26.9956 86.344 27.2277 86.375 27.4494C86.406 27.6712 86.3862 27.8796 86.3156 28.0747C86.2469 28.2725 86.1346 28.4561 85.9789 28.6254C85.8249 28.7975 85.6172 28.9722 85.3555 29.1497L83.1152 30.6692Z" fill="white"></path>
  <path d="M85.8467 34.1162C85.8116 34.1344 85.7787 34.1496 85.7479 34.1618C85.7201 34.1725 85.6944 34.1803 85.6709 34.185C85.6474 34.1898 85.6239 34.1909 85.6003 34.1883C85.5811 34.1871 85.5427 34.1773 85.4849 34.159C85.4272 34.1407 85.3457 34.1014 85.2402 34.0411C85.1363 33.9837 85.0336 33.9108 84.9321 33.8224C84.8307 33.734 84.7334 33.6324 84.6404 33.5174C84.5445 33.4039 84.4609 33.2784 84.3897 33.141C84.2472 32.8661 84.166 32.5985 84.146 32.3381C84.1305 32.0791 84.1747 31.8317 84.2788 31.596C84.3858 31.3588 84.5497 31.1347 84.7706 30.9238C84.9958 30.7143 85.2795 30.5209 85.6216 30.3436C86.0075 30.1435 86.3614 30.0176 86.6832 29.9658C87.0066 29.9169 87.2976 29.9273 87.5564 29.9972C87.8152 30.0671 88.0408 30.1875 88.2333 30.3585C88.4303 30.5309 88.5924 30.74 88.7197 30.9856C88.7879 31.1171 88.8399 31.2497 88.8757 31.3832C88.9145 31.5152 88.9392 31.6415 88.9498 31.7621C88.9619 31.8857 88.9621 32.0006 88.9504 32.1068C88.9387 32.213 88.9229 32.2935 88.9031 32.3483C88.8877 32.4045 88.8728 32.4438 88.8584 32.4661C88.8484 32.4898 88.8333 32.5106 88.8129 32.5286C88.794 32.5495 88.7708 32.569 88.743 32.5871C88.7182 32.6036 88.6868 32.6217 88.6488 32.6415C88.564 32.6854 88.4973 32.7033 88.4486 32.6952C88.4043 32.6885 88.3745 32.6705 88.3594 32.6412C88.3382 32.6003 88.338 32.5355 88.3588 32.4468C88.3811 32.3611 88.3987 32.2555 88.4116 32.1301C88.4274 32.0032 88.4268 31.8589 88.4097 31.6971C88.3941 31.5382 88.3386 31.3667 88.2431 31.1825C88.0461 30.8024 87.7476 30.5843 87.3476 30.5283C86.9491 30.4752 86.4736 30.5919 85.921 30.8783C85.6432 31.0223 85.4135 31.1766 85.2318 31.3413C85.053 31.5044 84.9199 31.6736 84.8326 31.8486C84.7498 32.0251 84.7119 32.2061 84.719 32.3916C84.7291 32.5756 84.7826 32.7611 84.8796 32.9483C84.9705 33.1237 85.0786 33.2642 85.2039 33.3699C85.3292 33.4756 85.4512 33.5608 85.57 33.6253C85.6887 33.6899 85.7926 33.7399 85.8815 33.7754C85.9719 33.8139 86.0254 33.8492 86.0421 33.8814C86.0512 33.8989 86.0529 33.9166 86.0473 33.9343C86.0461 33.9535 86.0361 33.9735 86.0172 33.9944C86.0013 34.0138 85.978 34.0333 85.9474 34.0529C85.9212 34.0739 85.8876 34.095 85.8467 34.1162Z" fill="white"></path>
  <path d="M86.1546 36.9057L84.3682 36.9314C84.3285 36.9292 84.2883 36.9076 84.2478 36.8669C84.2041 36.8273 84.1615 36.7537 84.1198 36.6463C84.0983 36.591 84.0835 36.5438 84.0754 36.5046C84.0672 36.4653 84.0682 36.4314 84.0783 36.4028C84.0865 36.3784 84.1038 36.3593 84.1302 36.3455C84.1536 36.3329 84.1867 36.3271 84.2295 36.3282L85.9365 36.3439C85.9362 36.3158 85.9432 36.2883 85.9576 36.2616C85.9719 36.2348 85.9886 36.2142 86.0077 36.1997L89.4861 33.1064C89.5231 33.0743 89.5539 33.0535 89.5785 33.044C89.6061 33.0333 89.6306 33.0326 89.6519 33.042C89.6744 33.0545 89.6943 33.0785 89.7117 33.1142C89.7333 33.1517 89.7567 33.2027 89.7817 33.2672C89.8079 33.3347 89.8257 33.3896 89.835 33.4319C89.8474 33.473 89.8532 33.5061 89.8523 33.5312C89.8527 33.5593 89.8469 33.581 89.8352 33.5961C89.8246 33.6144 89.8103 33.6323 89.7924 33.6498L86.6601 36.3651L86.6673 36.3835L90.8023 36.2518C90.8512 36.2505 90.8866 36.2597 90.9084 36.2795C90.9345 36.3012 90.9574 36.3329 90.9771 36.3747C91 36.4153 91.0233 36.4663 91.0471 36.5277C91.0698 36.586 91.0852 36.6348 91.0933 36.674C91.1027 36.7163 91.1032 36.7496 91.095 36.774C91.0868 36.7984 91.0689 36.816 91.0413 36.8267C91.0167 36.8362 90.9815 36.8411 90.9356 36.8412L86.1546 36.9057Z" fill="white"></path>
  <path d="M25.5648 17.0463L24.7884 18.7521L25.5779 20.4519L23.8721 19.6754L22.1724 20.465L22.9488 18.7592L22.1592 17.0594L23.865 17.8358L25.5648 17.0463Z" fill="white"></path>
  <path d="M90.8113 46.6971L89.7981 45.1204L87.9417 44.8632L89.5184 43.85L89.7756 41.9936L90.7888 43.5703L92.6452 43.8274L91.0685 44.8406L90.8113 46.6971Z" fill="white"></path>
  <path d="M37.319 91.1017L35.5036 90.6362L33.9685 91.7114L34.434 89.896L33.3588 88.3609L35.1742 88.8263L36.7093 87.7512L36.2439 89.5666L37.319 91.1017Z" fill="white"></path>
  <defs>
    <linearGradient id="paint0_linear_1185_4468" x1="49.9825" y1="19.1335" x2="81.9093" y2="53.8551" gradientUnits="userSpaceOnUse">
      <stop stop-color="#FED79A"></stop>
      <stop offset="0.167594" stop-color="#FE4C27"></stop>
      <stop offset="0.334271" stop-color="#BC122C"></stop>
      <stop offset="0.532199" stop-color="#851548"></stop>
      <stop offset="0.704084" stop-color="#3D215B"></stop>
      <stop offset="0.849926" stop-color="#001E61"></stop>
      <stop offset="1" stop-color="#111328"></stop>
    </linearGradient>
  </defs>
</svg>
